<?xml version="1.0" encoding="UTF-8" standalone="no"?>
<svg
 xmlns:dc="http://purl.org/dc/elements/1.1/"
 xmlns:cc="http://creativecommons.org/ns#"
 xmlns:rdf="http://www.w3.org/1999/02/22-rdf-syntax-ns#"
 xmlns:svg="http://www.w3.org/2000/svg"
 xmlns="http://www.w3.org/2000/svg"
 xmlns:xlink="http://www.w3.org/1999/xlink"
 xmlns:sodipodi="http://sodipodi.sourceforge.net/DTD/sodipodi-0.dtd"
 xmlns:inkscape="http://www.inkscape.org/namespaces/inkscape"
 width="81mm"
 height="66mm"
 viewBox="0 0 81 66"
 version="1.1"
 id="svg1913"
 sodipodi:docname="fav_3.svg"
 inkscape:version="1.0.2 (1.0.2+r75+1)">
<defs
 id="defs1907">
<marker
 style="overflow:visible"
 id="Arrow2Mend"
 refX="0"
 refY="0"
 orient="auto"
 inkscape:stockid="Arrow2Mend"
 inkscape:isstock="true">
<path
 transform="scale(-0.6)"
 d="M 8.718588,4.033735 -2.207289,0.0160133 8.718588,-4.001708 c -1.745498,2.372061 -1.73544,5.617452 0,8.035443 z"
 style="fill-rule:evenodd;stroke:black;stroke-width:0.625;stroke-linejoin:round;stroke-opacity:1"
 id="path1253" />
</marker>
<inkscape:path-effect
 effect="spiro"
 id="path-effect1224"
 is_visible="true"
 lpeversion="1" />
<g
 id="g6814">
<symbol
 overflow="visible"
 id="symbol7536">
<path
 style="stroke:none"
 d=""
 id="path1116" />
</symbol>
<symbol
 overflow="visible"
 id="symbol4096">
<path
 style="stroke:none"
 d="m 5.359375,-5.9375 c -0.140625,0.140625 -0.46875,0.421875 -0.46875,0.59375 0,0.09375 0.09375,0.203125 0.1875,0.203125 0.09375,0 0.140625,-0.07813 0.203125,-0.140625 C 5.390625,-5.421875 5.625,-5.703125 6.0625,-5.921875 6.125,-5.96875 6.234375,-6.015625 6.234375,-6.125 6.234375,-6.234375 6.15625,-6.28125 6.09375,-6.328125 5.875,-6.484375 5.765625,-6.65625 5.6875,-6.890625 5.65625,-6.984375 5.625,-7.125 5.484375,-7.125 c -0.140625,0 -0.203125,0.140625 -0.203125,0.21875 0,0.04687 0.07813,0.359375 0.234375,0.578125 H 2.15625 c -0.15625,0 -0.34375,0 -0.34375,0.203125 0,0.1875 0.1875,0.1875 0.34375,0.1875 z m 0,0"
 id="path4142" />
</symbol>
<symbol
 overflow="visible"
 id="symbol2912">
<path
 style="stroke:none"
 d=""
 id="path8500" />
</symbol>
<symbol
 overflow="visible"
 id="symbol6125">
<path
 style="stroke:none"
 d="m 3.484375,-3.875 -1.28125,-0.296875 c -0.625,-0.15625 -1,-0.6875 -1,-1.265625 0,-0.703125 0.53125,-1.3125 1.3125,-1.3125 1.65625,0 1.875,1.640625 1.9375,2.078125 0.01563,0.0625 0.01563,0.125 0.125,0.125 0.125,0 0.125,-0.04687 0.125,-0.234375 v -2 c 0,-0.171875 0,-0.25 -0.109375,-0.25 -0.0625,0 -0.07813,0.01563 -0.140625,0.140625 l -0.359375,0.5625 C 3.796875,-6.625 3.390625,-7.03125 2.5,-7.03125 c -1.109375,0 -1.9375,0.875 -1.9375,1.9375 0,0.828125 0.53125,1.5625 1.296875,1.828125 0.109375,0.03125 0.625,0.15625 1.328125,0.328125 0.265625,0.0625 0.5625,0.140625 0.84375,0.5 0.203125,0.265625 0.3125,0.59375 0.3125,0.921875 0,0.703125 -0.5,1.421875 -1.34375,1.421875 -0.28125,0 -1.046875,-0.046875 -1.578125,-0.53125 C 0.84375,-1.171875 0.8125,-1.796875 0.8125,-2.15625 0.796875,-2.265625 0.71875,-2.265625 0.6875,-2.265625 c -0.125,0 -0.125,0.07813 -0.125,0.25 v 2 c 0,0.171875 0,0.234375 0.109375,0.234375 0.0625,0 0.078125,-0.015625 0.140625,-0.125 0,-0.015625 0.03125,-0.046875 0.359375,-0.578125 0.3125,0.34375 0.953125,0.703125 1.84375,0.703125 1.15625,0 1.953125,-0.96875 1.953125,-2.078125 0,-0.984375 -0.65625,-1.8125 -1.484375,-2.015625 z m 0,0"
 id="path4256" />
</symbol>
<symbol
 overflow="visible"
 id="symbol1326">
<path
 style="stroke:none"
 d=""
 id="path5259" />
</symbol>
<symbol
 overflow="visible"
 id="symbol3437">
<path
 style="stroke:none"
 d="M 2.84375,-2.75 H 3.515625 C 3.65625,-2.75 3.75,-2.75 3.75,-2.90625 3.75,-3 3.65625,-3 3.53125,-3 H 2.890625 c 0.15625,-0.890625 0.203125,-1.203125 0.265625,-1.40625 0.03125,-0.15625 0.1875,-0.296875 0.359375,-0.296875 0,0 0.1875,0 0.328125,0.07813 -0.296875,0.09375 -0.3125,0.34375 -0.3125,0.375 0,0.15625 0.125,0.265625 0.28125,0.265625 0.1875,0 0.390625,-0.15625 0.390625,-0.421875 0,-0.328125 -0.328125,-0.5 -0.6875,-0.5 -0.3125,0 -0.65625,0.171875 -0.84375,0.515625 C 2.53125,-4.125 2.484375,-3.8125 2.328125,-3 H 1.78125 c -0.140625,0 -0.234375,0 -0.234375,0.15625 0,0.09375 0.09375,0.09375 0.21875,0.09375 H 2.28125 c 0,0.04687 -0.4375,2.546875 -0.609375,3.296875 -0.03125,0.15625 -0.15625,0.671875 -0.484375,0.671875 -0.01563,0 -0.171875,0 -0.3125,-0.07813 C 1.15625,1.04687 1.1875,0.79687 1.1875,0.76562 1.1875,0.609375 1.0625,0.5 0.90625,0.5 c -0.1875,0 -0.390625,0.15625 -0.390625,0.421875 0,0.3125 0.328125,0.5 0.671875,0.5 0.4375,0 0.75,-0.453125 0.828125,-0.609375 0.25,-0.46875 0.421875,-1.328125 0.4375,-1.40625 z m 0,0"
 id="path3487" />
</symbol>
</g>
</defs>
<sodipodi:namedview
 id="base"
 pagecolor="#ffffff"
 bordercolor="#666666"
 borderopacity="1.0"
 inkscape:pageopacity="0.0"
 inkscape:pageshadow="2"
 inkscape:zoom="2.443491"
 inkscape:cx="25.93614"
 inkscape:cy="84.99615"
 inkscape:document-units="mm"
 inkscape:current-layer="layer1"
 inkscape:document-rotation="0"
 showgrid="false"
 inkscape:window-width="1853"
 inkscape:window-height="1025"
 inkscape:window-x="1987"
 inkscape:window-y="27"
 inkscape:window-maximized="1" />
<metadata
 id="metadata1910">
<rdf:RDF>
<cc:Work
 rdf:about="">
<dc:format>image/svg+xml</dc:format>
<dc:type
 rdf:resource="http://purl.org/dc/dcmitype/StillImage" />
<dc:title />
</cc:Work>
</rdf:RDF>
</metadata>
<g
 inkscape:label="Layer 1"
 inkscape:groupmode="layer"
 id="layer1">
<path
 id="path298"
 style="fill:#74eaff;stroke:black;stroke-width:0.0661458;stroke-miterlimit:4;stroke-dasharray:none;stroke-opacity:1;paint-order:fill markers stroke"
 inkscape:transform-center-x="1.321819"
 inkscape:transform-center-y="-1.321823"
 d="m 52.64146,45.09985 -14.1371,-5.1786 -5.2735,-17.1873 10.3366,-7.9067 13.5254,14.544 z"
 sodipodi:nodetypes="cccccc" />
<circle
 style="fill:maroon;fill-opacity:0.798391;stroke:black;stroke-width:0.054084;stroke-miterlimit:4;stroke-dasharray:none;stroke-opacity:1;paint-order:fill markers stroke"
 id="path1220"
 cx="45.16116"
 cy="29.96295"
 r="0.9921876" />
<text
 xml:space="preserve"
 style="font-style:normal;font-variant:normal;font-weight:normal;font-stretch:normal;font-size:3.52778px;line-height:1.25;font-family:sans-serif;-inkscape-font-specification:'sans-serif, Normal';font-variant-ligatures:normal;font-variant-caps:normal;font-variant-numeric:normal;font-variant-east-asian:normal;letter-spacing:0px;word-spacing:0px;fill:black;fill-opacity:1;stroke:none;stroke-width:0.264583"
 x="49.93971"
 y="7.948515"
 id="text46-9"><tspan
 sodipodi:role="line"
 id="tspan72"
 x="49.93971"
 y="7.948515">neighbour</tspan></text>
<path
 id="path1144"
 style="opacity:0.5;fill:#74eaff;stroke:black;stroke-width:0.0661458;stroke-miterlimit:4;stroke-dasharray:none;stroke-opacity:1;paint-order:fill markers stroke"
 inkscape:transform-center-x="1.321819"
 inkscape:transform-center-y="-1.321823"
 d="m 76.06026,22.63775 -18.9674,6.7335 -13.5254,-14.544 10.3548,-14.322 19.2999,4.4597 z"
 sodipodi:nodetypes="cccccc" />
<path
 id="path298-3"
 style="opacity:0.5;fill:#74eaff;stroke:black;stroke-width:0.0661458;stroke-miterlimit:4;stroke-dasharray:none;stroke-opacity:1;paint-order:fill markers stroke"
 inkscape:transform-center-x="1.321819"
 inkscape:transform-center-y="-1.321823"
 d="m 66.93586,47.25905 -14.2944,-2.1592 4.4514,-15.7286 18.9674,-6.7335 4.7024,12.2708 z"
 sodipodi:nodetypes="cccccc" />
<g
 inkscape:label=""
 transform="matrix(0.512,0,0,0.512,-96.43483,-31.49145)"
 id="g2005">
<g
 id="g8318">
<g
 style="fill:black;fill-opacity:1"
 id="g817">
<use
 xlink:href="#symbol4096"
 x="300.161"
 y="91.4"
 id="use5705"
 width="100%"
 height="100%" />
</g>
<g
 style="fill:black;fill-opacity:1"
 id="g9734">
<use
 xlink:href="#symbol6125"
 x="300.65"
 y="93.918"
 id="use7117"
 width="100%"
 height="100%" />
</g>
<g
 style="fill:black;fill-opacity:1"
 id="g6877">
<use
 xlink:href="#symbol3437"
 x="306.185"
 y="95.412"
 id="use9297"
 width="100%"
 height="100%" />
</g>
</g>
</g>
<path
 id="path1146"
 style="opacity:0.5;fill:#74eaff;stroke:black;stroke-width:0.0661458;stroke-miterlimit:4;stroke-dasharray:none;stroke-opacity:1;paint-order:fill markers stroke"
 inkscape:transform-center-x="1.321819"
 inkscape:transform-center-y="-1.321823"
 d="m 80.44826,24.98435 0.3144,9.9242 -4.7024,-12.2708 -2.8381,-17.6728 3.0764,3.3396 z"
 sodipodi:nodetypes="cccccc" />
<path
 style="fill:none;stroke:black;stroke-width:0.200662;stroke-linecap:butt;stroke-linejoin:miter;stroke-miterlimit:4;stroke-dasharray:none;stroke-opacity:1;marker-end:url(#Arrow2Mend)"
 d="m 45.86846,29.31075 11.0838,-12.0512"
 id="path1222"
 inkscape:path-effect="#path-effect1224"
 inkscape:original-d="m 45.86846,29.31075 c 3.6948,-4.0169 11.0838,-12.0512 11.0838,-12.0512" />
<path
 id="path1148"
 style="opacity:0.5;fill:#74eaff;stroke:black;stroke-width:0.0661458;stroke-miterlimit:4;stroke-dasharray:none;stroke-opacity:1;paint-order:fill markers stroke"
 inkscape:transform-center-x="1.321819"
 inkscape:transform-center-y="-1.321823"
 d="m 43.56746,14.82725 -10.3366,7.9067 3.7102,-8.2003 11.6731,-12.6659 5.3081,-1.3625 z"
 sodipodi:nodetypes="cccccc" />
<path
 id="path1150"
 style="opacity:0.5;fill:#74eaff;stroke:black;stroke-width:0.0661458;stroke-miterlimit:4;stroke-dasharray:none;stroke-opacity:1;paint-order:fill markers stroke"
 inkscape:transform-center-x="1.321819"
 inkscape:transform-center-y="-1.321823"
 d="m 15.05533,36.88375 -14.7154,-6.1259 10.0271,-15.9627 15.6022,-4.23856 7.26163,12.17736 z"
 sodipodi:nodetypes="cccccc" />
<path
 id="path1218"
 style="opacity:0.5;fill:#74eaff;stroke:black;stroke-width:0.0661458;stroke-miterlimit:4;stroke-dasharray:none;stroke-opacity:1;paint-order:fill markers stroke"
 inkscape:transform-center-x="1.321819"
 inkscape:transform-center-y="-1.321823"
 d="m 33.23086,22.73395 -7.26163,-12.17736 12.77583,2.01986 -1.804,1.9572 z"
 sodipodi:nodetypes="ccccc" />
<text
 xml:space="preserve"
 style="font-style:normal;font-weight:normal;font-size:10.5833px;line-height:1.25;font-family:sans-serif;letter-spacing:0px;word-spacing:0px;fill:black;fill-opacity:1;stroke:none;stroke-width:0.264583"
 x="22.04108"
 y="43.91438"
 id="text46"><tspan
 sodipodi:role="line"
 id="tspan44"
 x="22.04108"
 y="43.91438"
 style="font-style:normal;font-variant:normal;font-weight:normal;font-stretch:normal;font-size:3.52778px;font-family:sans-serif;-inkscape-font-specification:'sans-serif, Normal';font-variant-ligatures:normal;font-variant-caps:normal;font-variant-numeric:normal;font-variant-east-asian:normal;stroke-width:0.264583">owner</tspan></text>
<path
 id="path1152"
 style="opacity:0.5;fill:#74eaff;stroke:black;stroke-width:0.0661458;stroke-miterlimit:4;stroke-dasharray:none;stroke-opacity:1;paint-order:fill markers stroke"
 inkscape:transform-center-x="1.321819"
 inkscape:transform-center-y="-1.321823"
 d="m 46.72786,58.38245 -23.92373,1.9956 -7.7488,-23.4943 18.17553,-14.1498 16.22089,17.1986 z"
 sodipodi:nodetypes="cccccc" />
<path
 id="path1154"
 style="opacity:0.5;fill:#74eaff;stroke:black;stroke-width:0.0661458;stroke-miterlimit:4;stroke-dasharray:none;stroke-opacity:1;paint-order:fill markers stroke"
 inkscape:transform-center-x="1.321819"
 inkscape:transform-center-y="-1.321823"
 d="m 52.64146,45.09985 -5.858,16.6805 -0.056,-3.3979 2.72429,-18.4499 7.64071,-10.5613 z"
 sodipodi:nodetypes="cccccc" />
<path
 id="path1152-6"
 style="opacity:0.5;fill:#74eaff;stroke:black;stroke-width:0.0661458;stroke-miterlimit:4;stroke-dasharray:none;stroke-opacity:1;paint-order:fill markers stroke"
 inkscape:transform-center-x="1.321819"
 inkscape:transform-center-y="-1.321823"
 d="m 22.80413,60.37805 -10.061,4.3198 -12.5117,-16.7574 0.1085,-17.1826 14.7154,6.1259 z"
 sodipodi:nodetypes="cccccc" />
<path
 id="path1152-7"
 style="opacity:0.5;fill:#74eaff;stroke:black;stroke-width:0.0661458;stroke-miterlimit:4;stroke-dasharray:none;stroke-opacity:1;paint-order:fill markers stroke"
 inkscape:transform-center-x="1.321819"
 inkscape:transform-center-y="-1.321823"
 d="m 46.76486,61.58275 -22.69633,3.9335 -11.3254,-0.8184 10.061,-4.3198 23.92373,-1.9956 z"
 sodipodi:nodetypes="cccccc" />
</g>
</svg>
