<?xml version="1.0" encoding="UTF-8" standalone="no"?>
<!-- Created with Inkscape (http://www.inkscape.org/) -->

<svg
 width="200"
 height="100"
 viewBox="0 0 52.91667 26.45834"
 version="1.1"
 id="svg8"
 inkscape:version="1.1 (ce6663b3b7, 2021-05-25)"
 sodipodi:docname="a.svg"
 inkscape:export-filename="C:\Users\mnobr\Nextcloud\WorkDocs\CRheoKaizen\Logo\LogoV2-vectorial.png"
 inkscape:export-xdpi="5.0078115"
 inkscape:export-ydpi="5.0078115"
 xmlns:inkscape="http://www.inkscape.org/namespaces/inkscape"
 xmlns:sodipodi="http://sodipodi.sourceforge.net/DTD/sodipodi-0.dtd"
 xmlns:xlink="http://www.w3.org/1999/xlink"
 xmlns="http://www.w3.org/2000/svg"
 xmlns:svg="http://www.w3.org/2000/svg"
 xmlns:rdf="http://www.w3.org/1999/02/22-rdf-syntax-ns#"
 xmlns:cc="http://creativecommons.org/ns#"
 xmlns:dc="http://purl.org/dc/elements/1.1/">
<defs
 id="defs2">
<linearGradient
 inkscape:collect="always"
 id="linearGradient6449">
<stop
 style="stop-color:#69320f;stop-opacity:1"
 offset="0"
 id="stop6445" />
<stop
 style="stop-color:#cc6d30;stop-opacity:1"
 offset="1"
 id="stop6447" />
</linearGradient>
<clipPath
 clipPathUnits="userSpaceOnUse"
 id="clipPath5967">
<rect
 style="fill:black;fill-opacity:1;stroke:black;stroke-width:0.0157719;stroke-miterlimit:4;stroke-dasharray:none;stroke-dashoffset:0;stroke-opacity:1"
 id="rect5969"
 width="82.76363"
 height="82.29107"
 x="2.627632"
 y="97.21233" />
</clipPath>
<clipPath
 clipPathUnits="userSpaceOnUse"
 id="clipPath6089">
<path
 style="fill:black;stroke-width:0.264583"
 d="m 45.15081,176.6202 c -0.68538,-0.8258 -1.28801,-0.9761 -2.16345,-0.5393 -0.94405,0.4709 -1.52176,0.5123 -2.38456,0.1708 -0.83472,-0.3304 -4.63548,-1.7403 -5.76713,-2.1393 -1.13718,-0.401 -3.99644,-1.467 -5.42396,-2.0222 -0.58209,-0.2264 -1.53459,-0.5522 -2.11667,-0.7241 -0.58208,-0.1719 -1.29646,-0.4452 -1.5875,-0.6073 -0.29104,-0.1621 -0.94589,-0.4228 -1.45521,-0.5793 -4.342,-1.334 -6.20825,-2.1478 -7.06186,-3.0796 -0.554,-0.6047 -1.04472,-0.9181 -1.29019,-0.8239 -0.26253,0.1007 -0.48672,-0.086 -0.66469,-0.5544 -0.14771,-0.3885 -0.49166,-0.8626 -0.76434,-1.0536 -0.27267,-0.191 -0.57446,-0.7055 -0.67063,-1.1434 -0.0962,-0.4378 -0.32699,-0.9482 -0.51292,-1.1342 -0.18594,-0.1859 -0.60066,-0.8693 -0.9216,-1.5186 -1.13574,-2.2978 -1.74488,-3.3822 -2.17154,-3.866 -0.237447,-0.2693 -0.517257,-0.7697 -0.621799,-1.1122 -0.104542,-0.3424 -0.470646,-1.036 -0.813565,-1.5413 -0.342918,-0.5054 -0.704564,-1.1777 -0.803656,-1.4941 -0.09909,-0.3164 -0.401915,-0.8593 -0.672941,-1.2063 -0.271021,-0.347 -0.492768,-0.8531 -0.492768,-1.1245 0,-0.2714 -0.248563,-0.742 -0.552357,-1.0458 -0.303798,-0.3038 -0.733714,-0.9864 -0.955374,-1.5169 -0.22166,-0.5305 -0.624128,-1.2457 -0.894376,-1.5893 -0.381254,-0.4847 -0.455671,-0.885 -0.332087,-1.7866 0.104024,-0.759 0.04396,-1.301 -0.173164,-1.5626 -0.246184,-0.2967 -0.255979,-0.4927 -0.03775,-0.7557 0.162076,-0.1953 0.218995,-0.4307 0.126489,-0.5233 -0.09251,-0.093 0.01762,-0.6768 0.24475,-1.2985 0.227116,-0.6217 0.487881,-1.7901 0.579472,-2.5963 0.219755,-1.9344 0.712526,-3.3136 1.419093,-3.9719 0.670602,-0.6247 0.672097,-0.6321 0.261329,-1.2898 -0.370761,-0.5937 0.31836,-2.3644 2.427332,-6.237 0.713243,-1.3097 2.383202,-4.5244 3.711022,-7.1437 3.90147,-7.6964 4.91416,-9.4729 5.52993,-9.7007 0.31221,-0.1155 0.83201,-0.513 1.15511,-0.8834 0.44591,-0.5111 1.06558,-0.7648 2.57183,-1.0529 1.09141,-0.2087 2.93688,-0.6105 4.10105,-0.8928 15.74228,-3.8175 21.72961,-5.0909 22.65352,-4.8181 0.52673,0.1555 1.32265,0.2098 1.76871,0.1206 0.64011,-0.128 1.14252,0.039 2.38421,0.7935 0.86526,0.5256 1.65942,0.9556 1.7648,0.9556 0.10538,0 0.74465,0.3782 1.4206,0.8404 0.67594,0.4622 2.53868,1.5884 4.13941,2.5025 6.92949,3.9575 9.36866,5.5553 9.66317,6.3299 0.13508,0.3553 0.40487,0.646 0.59953,0.646 0.4651,0 1.55061,1.2185 2.12132,2.3812 0.24999,0.5094 0.68932,1.2833 0.97627,1.7198 0.28696,0.4366 0.82512,1.3891 1.19591,2.1167 0.37079,0.7276 0.96718,1.7992 1.32531,2.3813 0.35814,0.582 0.83052,1.4155 1.04974,1.852 0.21923,0.4366 0.69552,1.27 1.05844,1.8521 1.03557,1.661 1.04049,1.7057 0.27521,2.5045 -0.87137,0.9095 -0.73591,1.6767 0.39975,2.264 0.62796,0.3247 0.74553,0.5289 0.64564,1.1215 -0.86864,5.1535 -2.40361,14.6567 -2.93757,18.1871 -0.2201,1.4552 -0.50851,3.1221 -0.64092,3.7042 -0.13241,0.5821 -0.24365,1.437 -0.24721,1.8998 -0.005,0.6675 -0.12897,0.859 -0.59908,0.926 -0.35231,0.05 -0.6247,0.2992 -0.67176,0.6138 -0.20219,1.3517 -0.36101,1.6202 -1.2377,2.0921 -0.51563,0.2776 -0.93751,0.602 -0.93751,0.7208 0,0.1189 -0.36865,0.4068 -0.81923,0.6398 -0.65935,0.341 -14.82068,10.7714 -17.80337,13.113 -0.53732,0.4218 -1.06031,0.5816 -1.7669,0.5399 -0.86108,-0.051 -1.05337,0.044 -1.35344,0.6671 -0.54309,1.1277 -4.56009,2.102 -5.24817,1.2729 z"
 id="path6091"
 inkscape:connector-curvature="0"
 sodipodi:nodetypes="cccscccccccscccccsccscccsccccsccsscccscccscccsccsccccccccccccsccccc" />
</clipPath>
<linearGradient
 inkscape:collect="always"
 xlink:href="#linearGradient6449"
 id="linearGradient6451"
 x1="35.19203"
 y1="197.929"
 x2="168.3837"
 y2="90.72557"
 gradientUnits="userSpaceOnUse" />
</defs>
<sodipodi:namedview
 id="base"
 pagecolor="#ffffff"
 bordercolor="#666666"
 borderopacity="1.0"
 inkscape:pageopacity="0.0"
 inkscape:pageshadow="2"
 inkscape:zoom="1.422599"
 inkscape:cx="238.6477"
 inkscape:cy="17.57347"
 inkscape:document-units="px"
 inkscape:current-layer="layer2"
 showgrid="false"
 inkscape:snap-nodes="false"
 inkscape:window-width="1853"
 inkscape:window-height="1025"
 inkscape:window-x="1987"
 inkscape:window-y="27"
 inkscape:window-maximized="1"
 showguides="false"
 inkscape:pagecheckerboard="0"
 units="px" />
<metadata
 id="metadata5">
<rdf:RDF>
<cc:Work
 rdf:about="">
<dc:format>image/svg+xml</dc:format>
<dc:type
 rdf:resource="http://purl.org/dc/dcmitype/StillImage" />
</cc:Work>
</rdf:RDF>
</metadata>
<g
 inkscape:groupmode="layer"
 id="layer2"
 inkscape:label="Dots"
 style="display:inline"
 transform="translate(0,-117)">
<g
 id="g111"
 transform="matrix(0.1458,0,0,0.1458,1.307835,100.0486)">
<g
 aria-label="Computational Rheology @IPC"
 style="font-style:normal;font-weight:normal;font-size:23.4969px;line-height:1.25;font-family:sans-serif;text-align:start;letter-spacing:0px;word-spacing:0px;text-anchor:start;display:inline;fill:black;fill-opacity:1;stroke:none;stroke-width:0.587423"
 id="text862-5">
<path
 d="m 188.5388,232.9277 q -1.2162,0.631 -2.5356,0.9523 -1.3194,0.3212 -2.7535,0.3212 -4.2795,0 -6.7806,-2.3864 -2.5011,-2.3979 -2.5011,-6.4938 0,-4.1073 2.5011,-6.4937 2.5011,-2.3979 6.7806,-2.3979 1.4341,0 2.7535,0.3212 1.3194,0.3213 2.5356,0.9523 v 3.5452 q -1.2276,-0.8376 -2.4208,-1.2276 -1.1932,-0.3901 -2.5126,-0.3901 -2.3635,0 -3.7173,1.5144 -1.3538,1.5145 -1.3538,4.1762 0,2.6503 1.3538,4.1648 1.3538,1.5144 3.7173,1.5144 1.3194,0 2.5126,-0.3901 1.1932,-0.39 2.4208,-1.2276 z"
 style="font-weight:bold;stroke-width:0.587423"
 id="path196" />
<path
 d="m 197.2469,222.4987 q -1.698,0 -2.6847,1.3308 -0.9867,1.3194 -0.9867,3.6255 0,2.3061 0.9752,3.637 0.9867,1.3194 2.6962,1.3194 1.6865,0 2.6732,-1.3309 0.9867,-1.3308 0.9867,-3.6255 0,-2.2831 -0.9867,-3.614 -0.9867,-1.3423 -2.6732,-1.3423 z m 0,-1.7898 q 2.7535,0 4.3253,1.7898 1.5719,1.7898 1.5719,4.9563 0,3.1551 -1.5719,4.9564 -1.5718,1.7898 -4.3253,1.7898 -2.765,0 -4.3368,-1.7898 -1.5604,-1.8013 -1.5604,-4.9564 0,-3.1665 1.5604,-4.9563 1.5718,-1.7898 4.3368,-1.7898 z"
 style="text-align:start;text-anchor:start;stroke-width:0.587423"
 id="path198" />
<path
 d="m 216.6364,223.4853 q 0.7917,-1.4226 1.8931,-2.0995 1.1014,-0.6769 2.5929,-0.6769 2.0078,0 3.0977,1.4111 1.09,1.3998 1.09,3.9927 v 7.7558 h -2.1225 v -7.687 q 0,-1.8471 -0.654,-2.7421 -0.654,-0.8949 -1.9963,-0.8949 -1.6407,0 -2.5929,1.09 -0.9523,1.0899 -0.9523,2.9715 v 7.2625 h -2.1225 v -7.687 q 0,-1.8586 -0.654,-2.7421 -0.654,-0.8949 -2.0193,-0.8949 -1.6177,0 -2.5699,1.1015 -0.9523,1.0899 -0.9523,2.96 v 7.2625 h -2.1225 v -12.8499 h 2.1225 v 1.9963 q 0.7228,-1.1817 1.7324,-1.7439 1.0097,-0.5621 2.3979,-0.5621 1.3997,0 2.3749,0.7113 0.9867,0.7113 1.4571,2.0651 z"
 style="text-align:start;text-anchor:start;stroke-width:0.587423"
 id="path200" />
<path
 d="m 231.5744,231.941 v 6.815 h -2.1225 v -17.7374 h 2.1225 v 1.9505 q 0.6654,-1.1474 1.6751,-1.6981 1.0211,-0.5621 2.4323,-0.5621 2.3405,0 3.7976,1.8586 1.4685,1.8586 1.4685,4.8875 0,3.0289 -1.4685,4.8876 -1.4571,1.8586 -3.7976,1.8586 -1.4112,0 -2.4323,-0.5507 -1.0097,-0.5622 -1.6751,-1.7095 z m 7.1822,-4.486 q 0,-2.329 -0.9638,-3.6484 -0.9522,-1.3309 -2.6273,-1.3309 -1.6751,0 -2.6388,1.3309 -0.9523,1.3194 -0.9523,3.6484 0,2.3291 0.9523,3.66 0.9637,1.3194 2.6388,1.3194 1.6751,0 2.6273,-1.3194 0.9638,-1.3309 0.9638,-3.66 z"
 style="text-align:start;text-anchor:start;stroke-width:0.587423"
 id="path202" />
<path
 d="m 244.2292,228.7974 v -7.7788 h 2.1111 v 7.6985 q 0,1.8242 0.7113,2.742 0.7114,0.9064 2.134,0.9064 1.7095,0 2.6962,-1.0899 0.9982,-1.09 0.9982,-2.9716 v -7.2854 h 2.111 v 12.8499 h -2.111 v -1.9734 q -0.7687,1.1703 -1.7898,1.7439 -1.0097,0.5622 -2.352,0.5622 -2.2143,0 -3.3616,-1.3768 -1.1474,-1.3767 -1.1474,-4.027 z m 5.3121,-8.0885 z"
 style="text-align:start;text-anchor:start;stroke-width:0.587423"
 id="path204" />
<path
 d="m 261.4504,217.3702 v 3.6484 h 4.3483 v 1.6407 h -4.3483 v 6.9756 q 0,1.5718 0.4245,2.0193 0.436,0.4474 1.7554,0.4474 h 2.1684 v 1.7669 h -2.1684 q -2.4438,0 -3.3731,-0.9064 -0.9294,-0.9178 -0.9294,-3.3272 v -6.9756 h -1.5488 v -1.6407 h 1.5488 v -3.6484 z"
 style="text-align:start;text-anchor:start;stroke-width:0.587423"
 id="path206" />
<path
 d="m 274.4264,227.4091 q -2.5585,0 -3.5451,0.5852 -0.9867,0.5851 -0.9867,1.9963 0,1.1244 0.7343,1.7898 0.7457,0.654 2.0192,0.654 1.7554,0 2.8109,-1.2391 1.067,-1.2506 1.067,-3.3158 v -0.4704 z m 4.2107,-0.8719 v 7.3313 h -2.1111 v -1.9504 q -0.7228,1.1702 -1.8013,1.7324 -1.0784,0.5507 -2.6388,0.5507 -1.9733,0 -3.1436,-1.1014 -1.1588,-1.1129 -1.1588,-2.9715 0,-2.1684 1.4456,-3.2699 1.4571,-1.1014 4.3369,-1.1014 h 2.96 v -0.2065 q 0,-1.4571 -0.9637,-2.2487 -0.9523,-0.8031 -2.6847,-0.8031 -1.1014,0 -2.1455,0.2638 -1.044,0.2639 -2.0078,0.7917 v -1.9504 q 1.1588,-0.4475 2.2487,-0.6655 1.09,-0.2294 2.1226,-0.2294 2.7879,0 4.1647,1.4456 1.3768,1.4456 1.3768,4.3827 z"
 style="text-align:start;text-anchor:start;stroke-width:0.587423"
 id="path208" />
<path
 d="m 285.085,217.3702 v 3.6484 h 4.3483 v 1.6407 h -4.3483 v 6.9756 q 0,1.5718 0.4245,2.0193 0.4359,0.4474 1.7554,0.4474 h 2.1684 v 1.7669 h -2.1684 q -2.4438,0 -3.3731,-0.9064 -0.9294,-0.9178 -0.9294,-3.3272 v -6.9756 h -1.5488 v -1.6407 h 1.5488 v -3.6484 z"
 style="text-align:start;text-anchor:start;stroke-width:0.587423"
 id="path210" />
<path
 d="m 292.2212,221.0186 h 2.1111 v 12.8499 h -2.1111 z m 0,-5.0022 h 2.1111 v 2.6732 h -2.1111 z"
 style="text-align:start;text-anchor:start;stroke-width:0.587423"
 id="path212" />
<path
 d="m 303.7173,222.4987 q -1.698,0 -2.6847,1.3308 -0.9867,1.3194 -0.9867,3.6255 0,2.3061 0.9752,3.637 0.9867,1.3194 2.6962,1.3194 1.6865,0 2.6732,-1.3309 0.9867,-1.3308 0.9867,-3.6255 0,-2.2831 -0.9867,-3.614 -0.9867,-1.3423 -2.6732,-1.3423 z m 0,-1.7898 q 2.7535,0 4.3253,1.7898 1.5719,1.7898 1.5719,4.9563 0,3.1551 -1.5719,4.9564 -1.5718,1.7898 -4.3253,1.7898 -2.765,0 -4.3369,-1.7898 -1.5603,-1.8013 -1.5603,-4.9564 0,-3.1665 1.5603,-4.9563 1.5719,-1.7898 4.3369,-1.7898 z"
 style="text-align:start;text-anchor:start;stroke-width:0.587423"
 id="path214" />
<path
 d="m 323.7837,226.1127 v 7.7558 h -2.111 v -7.687 q 0,-1.8242 -0.7113,-2.7306 -0.7114,-0.9064 -2.134,-0.9064 -1.7095,0 -2.6962,1.09 -0.9867,1.0899 -0.9867,2.9715 v 7.2625 h -2.1225 v -12.8499 h 2.1225 v 1.9963 q 0.7572,-1.1587 1.7783,-1.7324 1.0326,-0.5736 2.375,-0.5736 2.2143,0 3.3501,1.3767 1.1358,1.3653 1.1358,4.0271 z"
 style="text-align:start;text-anchor:start;stroke-width:0.587423"
 id="path216" />
<path
 d="m 333.8571,227.4091 q -2.5585,0 -3.5452,0.5852 -0.9866,0.5851 -0.9866,1.9963 0,1.1244 0.7342,1.7898 0.7458,0.654 2.0193,0.654 1.7554,0 2.8109,-1.2391 1.067,-1.2506 1.067,-3.3158 v -0.4704 z m 4.2107,-0.8719 v 7.3313 h -2.1111 v -1.9504 q -0.7228,1.1702 -1.8013,1.7324 -1.0784,0.5507 -2.6388,0.5507 -1.9734,0 -3.1436,-1.1014 -1.1588,-1.1129 -1.1588,-2.9715 0,-2.1684 1.4456,-3.2699 1.4571,-1.1014 4.3368,-1.1014 h 2.9601 v -0.2065 q 0,-1.4571 -0.9637,-2.2487 -0.9523,-0.8031 -2.6847,-0.8031 -1.1015,0 -2.1455,0.2638 -1.0441,0.2639 -2.0078,0.7917 v -1.9504 q 1.1588,-0.4475 2.2487,-0.6655 1.09,-0.2294 2.1225,-0.2294 2.788,0 4.1648,1.4456 1.3768,1.4456 1.3768,4.3827 z"
 style="text-align:start;text-anchor:start;stroke-width:0.587423"
 id="path218" />
<path
 d="m 342.4275,216.0164 h 2.1111 v 17.8521 h -2.1111 z"
 style="text-align:start;text-anchor:start;stroke-width:0.587423"
 id="path220" />
<path
 d="m 181.2304,253.7055 q 1.3883,0 1.9849,-0.5163 0.6081,-0.5163 0.6081,-1.698 0,-1.1703 -0.6081,-1.6751 -0.5966,-0.5048 -1.9849,-0.5048 h -1.8586 v 4.3942 z m -1.8586,3.0518 v 6.4823 h -4.4172 v -17.1293 h 6.7462 q 3.3846,0 4.9564,1.1358 1.5833,1.1359 1.5833,3.5911 0,1.698 -0.8261,2.788 -0.8146,1.0899 -2.4667,1.6062 0.9064,0.2065 1.6177,0.9408 0.7228,0.7228 1.4571,2.2028 l 2.3979,4.8646 h -4.704 l -2.0881,-4.2565 q -0.631,-1.285 -1.285,-1.7554 -0.6425,-0.4704 -1.7209,-0.4704 z"
 style="font-weight:bold;stroke-width:0.587423"
 id="path222" />
<path
 d="m 205.7714,255.415 v 7.8246 h -4.1303 v -1.2735 -4.6925 q 0,-1.6865 -0.08,-2.3175 -0.069,-0.6311 -0.2524,-0.9294 -0.241,-0.4015 -0.654,-0.6195 -0.413,-0.2295 -0.9408,-0.2295 -1.285,0 -2.0193,0.9982 -0.7342,0.9867 -0.7342,2.7421 v 6.3216 h -4.1074 v -17.8521 h 4.1074 v 6.8839 q 0.9293,-1.1244 1.9733,-1.6522 1.0441,-0.5392 2.3061,-0.5392 2.2258,0 3.3731,1.3653 1.1588,1.3653 1.1588,3.9697 z"
 style="font-weight:bold;stroke-width:0.587423"
 id="path224" />
<path
 d="m 222.4303,256.7803 v 1.1702 h -9.6029 q 0.1491,1.4457 1.044,2.1685 0.8949,0.7228 2.5011,0.7228 1.2965,0 2.6503,-0.3786 1.3653,-0.3901 2.7995,-1.1703 v 3.1666 q -1.4571,0.5507 -2.9142,0.826 -1.4571,0.2869 -2.9142,0.2869 -3.4878,0 -5.4267,-1.7669 -1.9275,-1.7783 -1.9275,-4.9793 0,-3.1437 1.893,-4.9449 1.9046,-1.8013 5.2318,-1.8013 3.0289,0 4.8416,1.8242 1.8242,1.8242 1.8242,4.8761 z m -4.2221,-1.3653 q 0,-1.1703 -0.6883,-1.8816 -0.677,-0.7228 -1.7784,-0.7228 -1.1932,0 -1.9389,0.6769 -0.7458,0.6654 -0.9293,1.9275 z"
 style="font-weight:bold;stroke-width:0.587423"
 id="path226" />
<path
 d="m 231.6432,253.0171 q -1.3653,0 -2.0881,0.9867 -0.7113,0.9752 -0.7113,2.8224 0,1.8471 0.7113,2.8338 0.7228,0.9753 2.0881,0.9753 1.3424,0 2.0537,-0.9753 0.7114,-0.9867 0.7114,-2.8338 0,-1.8472 -0.7114,-2.8224 -0.7113,-0.9867 -2.0537,-0.9867 z m 0,-2.9371 q 3.3158,0 5.1744,1.7898 1.8701,1.7898 1.8701,4.9564 0,3.1666 -1.8701,4.9564 -1.8586,1.7898 -5.1744,1.7898 -3.3272,0 -5.2087,-1.7898 -1.8702,-1.7898 -1.8702,-4.9564 0,-3.1666 1.8702,-4.9564 1.8815,-1.7898 5.2087,-1.7898 z"
 style="font-weight:bold"
 id="path228" />
<path
 d="m 241.9231,245.3875 h 2.1111 v 17.8521 h -2.1111 z"
 style="text-align:start;text-anchor:start;stroke-width:0.587423"
 id="path230" />
<path
 d="m 253.4192,251.8698 q -1.698,0 -2.6847,1.3309 -0.9867,1.3194 -0.9867,3.6255 0,2.3061 0.9752,3.637 0.9867,1.3194 2.6962,1.3194 1.6865,0 2.6732,-1.3309 0.9867,-1.3309 0.9867,-3.6255 0,-2.2832 -0.9867,-3.614 -0.9867,-1.3424 -2.6732,-1.3424 z m 0,-1.7898 q 2.7535,0 4.3254,1.7898 1.5718,1.7898 1.5718,4.9564 0,3.1551 -1.5718,4.9564 -1.5719,1.7898 -4.3254,1.7898 -2.765,0 -4.3368,-1.7898 -1.5604,-1.8013 -1.5604,-4.9564 0,-3.1666 1.5604,-4.9564 1.5718,-1.7898 4.3368,-1.7898 z"
 style="text-align:start;text-anchor:start;stroke-width:0.587423"
 id="path232" />
<path
 d="m 271.2599,256.6656 q 0,-2.2947 -0.9523,-3.5567 -0.9408,-1.262 -2.6503,-1.262 -1.698,0 -2.6503,1.262 -0.9408,1.262 -0.9408,3.5567 0,2.2831 0.9408,3.5451 0.9523,1.2621 2.6503,1.2621 1.7095,0 2.6503,-1.2621 0.9523,-1.262 0.9523,-3.5451 z m 2.111,4.9793 q 0,3.2813 -1.4571,4.8761 -1.457,1.6062 -4.463,1.6062 -1.1129,0 -2.0996,-0.1721 -0.9867,-0.1606 -1.916,-0.5048 v -2.0537 q 0.9293,0.5048 1.8357,0.7457 0.9064,0.241 1.8472,0.241 2.0766,0 3.1092,-1.09 1.0326,-1.0784 1.0326,-3.2698 v -1.0441 q -0.654,1.1359 -1.6751,1.6981 -1.0211,0.5621 -2.4438,0.5621 -2.3634,0 -3.809,-1.8012 -1.4456,-1.8013 -1.4456,-4.7728 0,-2.9831 1.4456,-4.7843 1.4456,-1.8013 3.809,-1.8013 1.4227,0 2.4438,0.5622 1.0211,0.5622 1.6751,1.698 v -1.9504 h 2.111 z"
 style="text-align:start;text-anchor:start;stroke-width:0.587423"
 id="path234" />
<path
 d="m 283.0657,264.4328 q -0.8949,2.2947 -1.7439,2.9945 -0.849,0.6999 -2.2717,0.6999 h -1.6865 v -1.7669 h 1.2391 q 0.8719,0 1.3538,-0.413 0.4819,-0.413 1.067,-1.9504 l 0.3786,-0.9638 -5.1973,-12.6433 h 2.2372 l 4.0156,10.0504 4.0156,-10.0504 h 2.2373 z"
 style="text-align:start;text-anchor:start;stroke-width:0.587423"
 id="path236" />
<path
 d="m 187.1735,289.8802 q -0.7916,0.849 -1.721,1.285 -0.9178,0.436 -1.916,0.436 -1.6865,0 -2.7994,-1.1359 -1.1014,-1.1358 -1.1014,-2.8797 0,-2.5241 1.698,-4.4057 1.7095,-1.8931 3.9926,-1.8931 1.0556,0 1.8816,0.459 0.8376,0.4589 1.285,1.2735 l 0.3098,-1.503 h 1.6406 l -1.6406,8.4671 q 2.0307,-0.3212 3.3387,-2.0651 1.3079,-1.7439 1.3079,-4.1418 0,-2.6732 -1.8931,-4.3598 -1.893,-1.698 -4.899,-1.698 -2.0422,0 -3.9467,0.7228 -1.9046,0.7113 -3.3617,2.0193 -1.6636,1.5374 -2.5929,3.5566 -0.9293,2.0193 -0.9293,4.1304 0,2.9944 1.9963,4.9449 2.0078,1.9619 5.1055,1.9619 1.4801,0 2.9142,-0.5049 1.4342,-0.4933 3.006,-1.5603 l 0.9408,1.3079 q -1.5489,1.1703 -3.3502,1.7669 -1.7898,0.6081 -3.6828,0.6081 -3.6944,0 -6.1496,-2.4553 -2.4438,-2.4552 -2.4438,-6.2069 0,-2.5815 1.1932,-4.9908 1.2047,-2.4208 3.3616,-4.1762 1.5948,-1.308 3.6599,-2.0308 2.0652,-0.7228 4.2336,-0.7228 3.6829,0 6.0922,2.1684 2.4209,2.1685 2.4209,5.4268 0,3.3846 -2.3406,5.6448 -2.329,2.2487 -5.9545,2.3175 z m -1.8242,-6.9757 q -1.6177,0 -2.7536,1.285 -1.1243,1.2735 -1.1243,3.0633 0,1.285 0.6539,2.0078 0.654,0.7228 1.8128,0.7228 1.6292,0 2.7306,-1.3079 1.1014,-1.3079 1.1014,-3.2125 0,-1.1702 -0.6654,-1.8586 -0.654,-0.6999 -1.7554,-0.6999 z"
 style="font-style:italic;text-align:start;text-anchor:start;stroke-width:0.587423"
 id="path238" />
<path
 d="m 200.2643,275.4814 h 2.329 l -3.3386,17.1294 h -2.3291 z"
 style="font-style:italic;text-align:start;text-anchor:start;stroke-width:0.587423"
 id="path240" />
<path
 d="m 207.1941,275.4814 h 5.3579 q 2.3405,0 3.5681,1.09 1.2277,1.0899 1.2277,3.1895 0,2.8224 -1.8128,4.3942 -1.8127,1.5718 -5.094,1.5718 h -2.9142 l -1.3424,6.8839 h -2.329 z m 1.9504,1.9046 -1.2391,6.4364 h 2.9142 q 1.9733,0 3.0289,-1.0096 1.0555,-1.0097 1.0555,-2.8913 0,-1.2046 -0.7228,-1.8701 -0.7113,-0.6654 -2.0078,-0.6654 z"
 style="font-style:italic;text-align:start;text-anchor:start;stroke-width:0.587423"
 id="path242" />
<path
 d="m 233.7314,276.8009 -0.4704,2.4437 q -1.1015,-1.1129 -2.3406,-1.6521 -1.2276,-0.5392 -2.6617,-0.5392 -1.9619,0 -3.4534,0.9408 -1.4801,0.9408 -2.5585,2.8682 -0.6884,1.2391 -1.0556,2.6274 -0.3556,1.3767 -0.3556,2.7765 0,2.3405 1.2047,3.5681 1.2161,1.2276 3.5222,1.2276 1.5948,0 3.0633,-0.5048 1.4686,-0.5163 2.8568,-1.5374 l -0.5392,2.7421 q -1.3653,0.5851 -2.765,0.8834 -1.3883,0.2983 -2.788,0.2983 -3.2928,0 -5.1514,-1.7898 -1.8472,-1.7898 -1.8472,-4.9793 0,-2.0422 0.6999,-4.0156 0.7113,-1.9734 2.0307,-3.6026 1.3997,-1.7324 3.1895,-2.5585 1.8013,-0.826 4.1877,-0.826 1.4686,0 2.7765,0.413 1.3194,0.4016 2.4553,1.2162 z"
 style="font-style:italic;text-align:start;text-anchor:start;stroke-width:0.587423"
 id="path244" />
</g>
<g
 style="display:inline"
 id="g117"
 transform="translate(-11.55861,61.16026)">
<path
 transform="translate(0,-1.125e-5)"
 inkscape:export-ydpi="5.0078115"
 inkscape:export-xdpi="5.0078115"
 sodipodi:nodetypes="ccccccccccc"
 inkscape:connector-curvature="0"
 id="path6326"
 d="m 123.4495,230.8254 -17.6686,0.2702 -62.76594,-22.7557 -27.81034,-52.1237 3.74455,-24.7297 29.44674,-56.58855 70.64589,-14.93414 48.1746,27.07673 20.685,36.48956 -10.1001,64.6958 z"
 inkscape:transform-center-y="-0.4382394"
 inkscape:transform-center-x="-0.1013009"
 style="display:inline;opacity:1;fill:url(#linearGradient6451);fill-opacity:1;stroke:black;stroke-width:1.218;stroke-linejoin:round;stroke-miterlimit:4;stroke-dasharray:none;stroke-dashoffset:0;stroke-opacity:1" />
<g
 id="g93">
<a
 transform="translate(0,-1.125e-5)"
 id="a6439"
 style="display:inline;stroke:black;stroke-width:1.218;stroke-miterlimit:4;stroke-dasharray:none;stroke-opacity:1"
 inkscape:export-xdpi="5.0078115"
 inkscape:export-ydpi="5.0078115">
<g
 id="g6443"
 style="stroke:black;stroke-width:1.218;stroke-miterlimit:4;stroke-dasharray:none;stroke-opacity:1">
<path
 id="path6434"
 style="fill:none;stroke:black;stroke-width:1.218;stroke-linecap:butt;stroke-linejoin:round;stroke-miterlimit:4;stroke-dasharray:none;stroke-opacity:1"
 d="m 105.8482,231.2911 71.7429,-43.4525 m -93.7202,21.12 39.8207,-41.0306 -17.8609,63.3248 z M 34.38786,181.8943 67.24933,97.90175 83.85013,208.9028 43.05336,208.3764 34.47461,181.8887 15.15431,156.2808 M 67.31381,97.86432 15.1346,156.2758 48.42256,74.95131 67.29687,97.88953 119.5312,60.23345 158.1735,117.8089 167.4471,87.06899 M 123.8177,167.7495 67.66511,98.05401 158.14,117.7494 l -34.2498,50.0361 53.7062,20.0504 -19.4586,-70.0405 29.7045,5.8147"
 inkscape:connector-curvature="0"
 sodipodi:nodetypes="cccccccccccccccccccccccccc" />
</g>
</a>
<g
 id="g69">
<ellipse
 inkscape:export-ydpi="5.0078115"
 inkscape:export-xdpi="5.0078115"
 ry="2.60792"
 rx="2.471515"
 cy="131.4346"
 cx="19.04545"
 id="path6093"
 style="opacity:1;fill:black;fill-opacity:1;stroke:none;stroke-width:1.118;stroke-miterlimit:4;stroke-dasharray:none;stroke-dashoffset:0;stroke-opacity:1" />
<circle
 r="4.375768"
 inkscape:export-ydpi="5.0078115"
 inkscape:export-xdpi="5.0078115"
 cy="123.6274"
 cx="187.6003"
 id="path6093-9"
 style="opacity:1;fill:black;fill-opacity:1;stroke:none;stroke-width:1.118;stroke-miterlimit:4;stroke-dasharray:none;stroke-dashoffset:0;stroke-opacity:1" />
<circle
 r="2.92485"
 inkscape:export-ydpi="5.0078115"
 inkscape:export-xdpi="5.0078115"
 cy="188.0557"
 cx="177.5976"
 id="path6093-9-7"
 style="opacity:1;fill:black;fill-opacity:1;stroke:none;stroke-width:1.118;stroke-miterlimit:4;stroke-dasharray:none;stroke-dashoffset:0;stroke-opacity:1" />
<circle
 r="2.92485"
 inkscape:export-ydpi="5.0078115"
 inkscape:export-xdpi="5.0078115"
 cy="230.6347"
 cx="123.0767"
 id="path6093-9-7-0"
 style="opacity:1;fill:black;fill-opacity:1;stroke:none;stroke-width:1.118;stroke-miterlimit:4;stroke-dasharray:none;stroke-dashoffset:0;stroke-opacity:1" />
<circle
 r="4.557133"
 inkscape:export-ydpi="5.0078115"
 inkscape:export-xdpi="5.0078115"
 cy="230.9778"
 cx="105.9395"
 id="path6093-9-7-0-7"
 style="opacity:1;fill:black;fill-opacity:1;stroke:none;stroke-width:1.118;stroke-miterlimit:4;stroke-dasharray:none;stroke-dashoffset:0;stroke-opacity:1" />
<circle
 r="2.92485"
 inkscape:export-ydpi="5.0078115"
 inkscape:export-xdpi="5.0078115"
 cy="208.2437"
 cx="43.19328"
 id="path6093-9-7-0-7-2"
 style="opacity:1;fill:black;fill-opacity:1;stroke:none;stroke-width:1.118;stroke-miterlimit:4;stroke-dasharray:none;stroke-dashoffset:0;stroke-opacity:1" />
<circle
 r="4.375769"
 inkscape:export-ydpi="5.0078115"
 inkscape:export-xdpi="5.0078115"
 cy="87.29797"
 cx="167.7764"
 id="path6093-9-79"
 style="opacity:1;fill:black;fill-opacity:1;stroke:none;stroke-width:1.118;stroke-miterlimit:4;stroke-dasharray:none;stroke-dashoffset:0;stroke-opacity:1" />
<circle
 r="4.375769"
 inkscape:export-ydpi="5.0078115"
 inkscape:export-xdpi="5.0078115"
 cy="60.52032"
 cx="119.5074"
 id="path6093-9-79-6"
 style="opacity:1;fill:black;fill-opacity:1;stroke:none;stroke-width:1.118;stroke-miterlimit:4;stroke-dasharray:none;stroke-dashoffset:0;stroke-opacity:1" />
<circle
 r="4.375769"
 inkscape:export-ydpi="5.0078115"
 inkscape:export-xdpi="5.0078115"
 cy="74.93059"
 cx="48.46758"
 id="path6093-9-79-6-1"
 style="opacity:1;fill:black;fill-opacity:1;stroke:none;stroke-width:1.118;stroke-miterlimit:4;stroke-dasharray:none;stroke-dashoffset:0;stroke-opacity:1" />
<circle
 r="5.479333"
 inkscape:export-ydpi="5.0078115"
 inkscape:export-xdpi="5.0078115"
 cy="97.88543"
 cx="67.31744"
 id="path6093-9-79-6-5"
 style="opacity:1;fill:black;fill-opacity:1;stroke:none;stroke-width:1.118;stroke-miterlimit:4;stroke-dasharray:none;stroke-dashoffset:0;stroke-opacity:1" />
<circle
 r="5.636985"
 inkscape:export-ydpi="5.0078115"
 inkscape:export-xdpi="5.0078115"
 cy="117.7496"
 cx="158.125"
 id="path6093-9-79-6-5-4"
 style="opacity:1;fill:black;fill-opacity:1;stroke:none;stroke-width:1.118;stroke-miterlimit:4;stroke-dasharray:none;stroke-dashoffset:0;stroke-opacity:1" />
<circle
 r="5.479333"
 inkscape:export-ydpi="5.0078115"
 inkscape:export-xdpi="5.0078115"
 cy="167.7253"
 cx="123.9145"
 id="path6093-9-79-6-5-9"
 style="opacity:1;fill:black;fill-opacity:1;stroke:none;stroke-width:1.118;stroke-miterlimit:4;stroke-dasharray:none;stroke-dashoffset:0;stroke-opacity:1" />
<circle
 r="2.168639"
 inkscape:export-ydpi="5.0078115"
 inkscape:export-xdpi="5.0078115"
 cy="208.8725"
 cx="84.02854"
 id="path6093-9-79-6-5-9-5"
 style="opacity:1;fill:black;fill-opacity:1;stroke:none;stroke-width:1.118;stroke-miterlimit:4;stroke-dasharray:none;stroke-dashoffset:0;stroke-opacity:1" />
<circle
 r="1.695683"
 inkscape:export-ydpi="5.0078115"
 inkscape:export-xdpi="5.0078115"
 cy="181.2834"
 cx="34.5258"
 id="path6093-9-79-6-5-9-5-4"
 style="opacity:1;fill:black;fill-opacity:1;stroke:none;stroke-width:0.874177;stroke-miterlimit:4;stroke-dasharray:none;stroke-dashoffset:0;stroke-opacity:1" />
<circle
 r="3.272204"
 inkscape:export-ydpi="5.0078115"
 inkscape:export-xdpi="5.0078115"
 cy="156.2167"
 cx="15.29225"
 id="path6093-9-79-6-5-9-5-4-2"
 style="opacity:1;fill:black;fill-opacity:1;stroke:none;stroke-width:1.118;stroke-miterlimit:4;stroke-dasharray:none;stroke-dashoffset:0;stroke-opacity:1" />
</g>
</g>
</g>
</g>
</g>
</svg>
