<?xml version="1.0" encoding="UTF-8" standalone="no"?>
<!-- Created with Inkscape (http://www.inkscape.org/) -->

<svg
   width="914.48151mm"
   height="483.90173mm"
   viewBox="0 0 914.48152 483.90175"
   version="1.1"
   id="svg8"
   inkscape:version="1.1.1 (3bf5ae0d25, 2021-09-20)"
   sodipodi:docname="FaceIntPt2.svg"
   xmlns:inkscape="http://www.inkscape.org/namespaces/inkscape"
   xmlns:sodipodi="http://sodipodi.sourceforge.net/DTD/sodipodi-0.dtd"
   xmlns="http://www.w3.org/2000/svg"
   xmlns:svg="http://www.w3.org/2000/svg"
   xmlns:rdf="http://www.w3.org/1999/02/22-rdf-syntax-ns#"
   xmlns:cc="http://creativecommons.org/ns#"
   xmlns:dc="http://purl.org/dc/elements/1.1/">
  <defs
     id="defs2">
    <rect
       x="1817.4977"
       y="1605.8971"
       width="457.20837"
       height="158.70042"
       id="rect42760" />
    <marker
       style="overflow:visible"
       id="Arrow1Lstart"
       refX="0"
       refY="0"
       orient="auto"
       inkscape:stockid="Arrow1Lstart"
       inkscape:isstock="true">
      <path
         transform="matrix(0.8,0,0,0.8,10,0)"
         style="fill:context-stroke;fill-rule:evenodd;stroke:context-stroke;stroke-width:1pt"
         d="M 0,0 5,-5 -12.5,0 5,5 Z"
         id="path1820" />
    </marker>
  </defs>
  <sodipodi:namedview
     id="base"
     pagecolor="#ffffff"
     bordercolor="#666666"
     borderopacity="1.0"
     inkscape:pageopacity="0.0"
     inkscape:pageshadow="2"
     inkscape:zoom="0.24258858"
     inkscape:cx="1626.2101"
     inkscape:cy="900.70193"
     inkscape:document-units="mm"
     inkscape:current-layer="layer1"
     showgrid="false"
     inkscape:window-width="1366"
     inkscape:window-height="705"
     inkscape:window-x="-8"
     inkscape:window-y="-8"
     inkscape:window-maximized="1"
     inkscape:pagecheckerboard="0"
     inkscape:snap-global="false" />
  <metadata
     id="metadata5">
    <rdf:RDF>
      <cc:Work
         rdf:about="">
        <dc:format>image/svg+xml</dc:format>
        <dc:type
           rdf:resource="http://purl.org/dc/dcmitype/StillImage" />
      </cc:Work>
    </rdf:RDF>
  </metadata>
  <g
     inkscape:label="Layer 1"
     inkscape:groupmode="layer"
     id="layer1"
     transform="translate(392.54003,199.66996)">
    <g
       id="g1065">
      <text
         xml:space="preserve"
         style="font-style:normal;font-weight:normal;font-size:10.5833px;line-height:1.25;font-family:sans-serif;letter-spacing:0px;word-spacing:0px;fill:#000000;fill-opacity:1;stroke:none;stroke-width:0.264583"
         x="-230.09258"
         y="250.14163"
         id="text10212"><tspan
           sodipodi:role="line"
           id="tspan10210"
           style="stroke-width:0.264583"
           x="-230.09258"
           y="250.14163" /><tspan
           sodipodi:role="line"
           style="stroke-width:0.264583"
           id="tspan10214"
           x="-230.09258"
           y="263.37076" /></text>
      <text
         xml:space="preserve"
         style="font-style:normal;font-weight:normal;font-size:25.4px;line-height:1.25;font-family:sans-serif;letter-spacing:0px;word-spacing:0px;white-space:pre;inline-size:141.204;fill:#000000;fill-opacity:1;stroke:none;stroke-width:0.264583"
         x="-349.06281"
         y="188.15718"
         id="text13056-6"
         transform="matrix(1.2744224,0,0,1.2141191,-71.832929,-21.691403)"><tspan
           x="-349.06281"
           y="188.15718"
           id="tspan1197"><tspan
             dx="0 21.423065 18.966431 19.775139 19.775139 19.469963 18.768074 13.336014 18.615479 13.336014 8.5753326 18.966431"
             style="font-size:31.2496px"
             id="tspan1193">Boundarerior</tspan><tspan
             dx="13.335999 8.9296875"
             id="tspan1195"> 
</tspan></tspan></text>
      <text
         xml:space="preserve"
         transform="matrix(0.26458333,0,0,0.26458333,-390.05253,-224.73945)"
         id="text42758"
         style="font-style:normal;font-weight:normal;font-size:40px;line-height:1.25;font-family:sans-serif;letter-spacing:0px;word-spacing:0px;white-space:pre;shape-inside:url(#rect42760);fill:#000000;fill-opacity:1;stroke:none" />
      <path
         d="m 457.16614,68.897897 c 0.30237,0 0.50395,0.24354 0.60474,0.73075 0.26205,0.84141 0.67528,1.47248 1.23971,1.89322 0.28221,0.22158 0.42331,0.44314 0.42331,0.66428 0,0.24354 -0.17134,0.47641 -0.51402,0.69754 -0.90711,0.48708 -1.70334,1.2068 -2.38871,2.15899 -0.22173,0.2881 -0.41324,0.43185 -0.5745,0.43185 -0.28221,0 -0.47371,-0.15505 -0.5745,-0.46512 -0.0202,-0.0665 -0.0302,-0.13307 -0.0302,-0.19898 0,-0.35401 0.47371,-1.00756 1.42113,-1.95969 h -9.67583 c -0.62489,0 -0.96758,-0.15504 -1.02805,-0.46512 -0.0202,-0.0665 -0.0302,-0.13306 -0.0302,-0.19897 0.12095,-0.44252 0.47371,-0.66428 1.05829,-0.66428 h 10.1898 c -0.40315,-0.57558 -0.64505,-1.21789 -0.72568,-1.92649 0,-0.35401 0.1411,-0.57558 0.42331,-0.66427 0.0605,-0.0251 0.12096,-0.0314 0.18142,-0.0314 z"
         fill="#000000"
         id="path2-5-9-1-6"
         style="stroke-width:1.58454" />
      <path
         d="m -124.68818,56.9009 c 0.30237,0 0.50395,0.24354 0.60474,0.73075 0.26205,0.84141 0.67528,1.47248 1.23971,1.89322 0.28221,0.22158 0.42331,0.44314 0.42331,0.66428 0,0.24354 -0.17134,0.47641 -0.51402,0.69754 -0.90711,0.48708 -1.70334,1.2068 -2.38871,2.15899 -0.22173,0.2881 -0.41324,0.43185 -0.5745,0.43185 -0.28221,0 -0.47371,-0.15505 -0.5745,-0.46512 -0.0202,-0.0665 -0.0302,-0.13307 -0.0302,-0.19898 0,-0.35401 0.47371,-1.00756 1.42113,-1.95969 h -9.67583 c -0.62489,0 -0.96758,-0.15504 -1.02805,-0.46512 -0.0202,-0.0665 -0.0302,-0.13306 -0.0302,-0.19897 0.12095,-0.44252 0.47371,-0.66428 1.05829,-0.66428 h 10.1898 c -0.40315,-0.57558 -0.64505,-1.21789 -0.72568,-1.92649 0,-0.35401 0.1411,-0.57558 0.42331,-0.66427 0.0605,-0.0251 0.12096,-0.0314 0.18142,-0.0314 z"
         fill="#000000"
         id="path2-5-9-1-8"
         style="stroke-width:1.58454" />
      <path
         d="m -322.13449,182.74085 0.28045,0.008 h 0.005 l 0.28046,0.004 h 0.0106 l 0.65087,-0.0121 h 0.005 c 0.0494,0 0.0741,0.0147 0.0741,0.0442 -0.0282,0.0509 -0.0723,0.0777 -0.13229,0.0804 -0.22578,0 -0.34749,0.0402 -0.36513,0.12062 l 0.35983,2.127 1.62454,-1.96215 0.0688,-0.11258 c 0.007,-0.0161 0.0106,-0.0295 0.0106,-0.0402 0,-0.0804 -0.0811,-0.12464 -0.24342,-0.13268 -0.0564,0 -0.0847,-0.0161 -0.0847,-0.0482 0,-0.0509 0.0335,-0.0764 0.10054,-0.0764 l 0.51858,0.0121 h 0.005 l 0.42334,-0.0121 h 0.0106 c 0.0459,0 0.0688,0.0161 0.0688,0.0482 0,0.0482 -0.0229,0.0737 -0.0688,0.0764 -0.18344,0.008 -0.32808,0.0456 -0.43392,0.11258 -0.0388,0.0241 -0.0776,0.0536 -0.11641,0.0885 -0.0423,0.0375 -0.0847,0.0817 -0.127,0.13268 l -1.905,2.30391 c -0.0564,0.0456 -0.10584,0.0697 -0.14817,0.0724 -0.0494,0 -0.0811,-0.0161 -0.0953,-0.0482 -0.004,-0.0107 -0.007,-0.0255 -0.0106,-0.0442 l -0.41805,-2.48082 c -0.0106,-0.0617 -0.0353,-0.0992 -0.0741,-0.11259 -0.0388,-0.0161 -0.11994,-0.0241 -0.24341,-0.0241 -0.0811,0 -0.12524,-0.0161 -0.1323,-0.0482 0,-0.0509 0.0335,-0.0764 0.10055,-0.0764 z"
         fill="#000000"
         id="path4-8"
         style="stroke-width:0.230633" />
      <path
         d="m -317.81473,183.79832 c -0.19755,0 -0.37923,0.0617 -0.54504,0.18496 -0.15875,0.11794 -0.2734,0.28011 -0.34396,0.48651 h 0.21696 c 0.70908,0 1.06363,-0.13939 1.06363,-0.41816 0,-0.10722 -0.0688,-0.18362 -0.20638,-0.22918 -0.0494,-0.0134 -0.11112,-0.0215 -0.18521,-0.0241 z m 0,-0.0885 c 0.254,0 0.42686,0.067 0.51859,0.20104 0.0317,0.0429 0.0476,0.0898 0.0476,0.14073 0,0.13939 -0.0794,0.25465 -0.23812,0.34579 l -0.005,0.004 c -0.0459,0.0241 -0.097,0.0456 -0.15345,0.0643 -0.19403,0.0617 -0.46391,0.0925 -0.80963,0.0925 h -0.28046 c -0.0564,0.17423 -0.0847,0.31362 -0.0847,0.41816 0,0.21176 0.0811,0.35383 0.24341,0.4262 0.06,0.0268 0.13229,0.0402 0.21696,0.0402 0.3175,0 0.60325,-0.0804 0.85725,-0.24124 0.0741,-0.0456 0.14111,-0.0978 0.20108,-0.15682 0.0247,-0.0268 0.0476,-0.0402 0.0688,-0.0402 0.0317,0 0.0529,0.0174 0.0635,0.0523 0,0.0295 -0.06,0.0871 -0.17992,0.17289 -0.29281,0.20104 -0.63324,0.30156 -1.02129,0.30156 -0.3175,0 -0.55034,-0.1032 -0.6985,-0.3096 -0.0882,-0.12062 -0.13229,-0.26001 -0.13229,-0.41816 0,-0.35115 0.17991,-0.63529 0.53975,-0.85241 0.26458,-0.16083 0.5468,-0.24125 0.84666,-0.24125 z"
         fill="#000000"
         id="path6-5"
         style="stroke-width:0.230633" />
      <path
         d="m -315.34549,183.70986 c 0.27164,0 0.46037,0.063 0.5662,0.18898 0.0388,0.0482 0.0582,0.10052 0.0582,0.15681 0,0.11794 -0.0617,0.19836 -0.1852,0.24125 -0.0353,0.0107 -0.0723,0.0161 -0.11113,0.0161 -0.10583,0 -0.16933,-0.0348 -0.1905,-0.10454 -0.004,-0.0107 -0.005,-0.0228 -0.005,-0.0362 0,-0.059 0.0317,-0.11124 0.0952,-0.15681 0.0494,-0.0375 0.127,-0.0563 0.23283,-0.0563 -0.0988,-0.0965 -0.25047,-0.15011 -0.45508,-0.16083 -0.22931,0 -0.43745,0.0885 -0.62442,0.26537 -0.0459,0.0429 -0.0864,0.0885 -0.12171,0.13671 -0.14111,0.19568 -0.23283,0.4262 -0.27516,0.69157 -0.007,0.0429 -0.0106,0.0804 -0.0106,0.11259 0,0.2198 0.0988,0.35785 0.29634,0.41414 0.0494,0.0161 0.10936,0.0241 0.17991,0.0241 0.3175,0 0.60325,-0.0804 0.85725,-0.24124 0.0741,-0.0456 0.14111,-0.0978 0.20109,-0.15682 0.0247,-0.0268 0.0476,-0.0402 0.0688,-0.0402 0.0318,0 0.0529,0.0174 0.0635,0.0523 0,0.0295 -0.06,0.0871 -0.17992,0.17289 -0.2928,0.20104 -0.63323,0.30156 -1.02129,0.30156 -0.33514,0 -0.57856,-0.10186 -0.73025,-0.30558 -0.0847,-0.1099 -0.127,-0.23455 -0.127,-0.37393 0,-0.27342 0.13758,-0.52673 0.41275,-0.75993 0.27164,-0.23053 0.57503,-0.35651 0.91017,-0.37796 0.0317,-0.003 0.0635,-0.004 0.0953,-0.004 z"
         fill="#000000"
         id="path8-5"
         style="stroke-width:0.230633" />
      <path
         d="m -311.14989,183.79832 c -0.2152,0 -0.41805,0.0858 -0.60855,0.25733 -0.0247,0.0241 -0.0476,0.0482 -0.0688,0.0724 -0.0141,0.0134 -0.0265,0.0268 -0.037,0.0402 -0.127,0.15547 -0.22049,0.3726 -0.28046,0.65137 -0.0176,0.0751 -0.0265,0.13671 -0.0265,0.18496 0,0.22248 0.10231,0.36187 0.30692,0.41816 0.0494,0.0134 0.10054,0.0201 0.15346,0.0201 0.20814,0 0.40393,-0.0777 0.58737,-0.2332 0.0494,-0.0429 0.0935,-0.0885 0.1323,-0.13671 0.14816,-0.193 0.24694,-0.43291 0.29633,-0.71972 0.004,-0.0215 0.005,-0.0429 0.005,-0.0643 v -0.004 l 0.005,-0.004 v -0.0482 c 0,-0.19836 -0.0864,-0.33104 -0.25929,-0.39806 -0.06,-0.0241 -0.12876,-0.0362 -0.20637,-0.0362 z m 0.005,-0.0885 c 0.30339,0 0.53446,0.0898 0.69321,0.2694 0.1023,0.11526 0.15345,0.25197 0.15345,0.41012 0,0.28413 -0.14287,0.5428 -0.42862,0.77601 -0.27164,0.22516 -0.57679,0.34579 -0.91546,0.36187 -0.0247,0.003 -0.0494,0.004 -0.0741,0.004 -0.30692,0 -0.53975,-0.0925 -0.6985,-0.27743 -0.0988,-0.11527 -0.14817,-0.24929 -0.14817,-0.40208 0,-0.2761 0.14111,-0.53209 0.42333,-0.76797 0.26812,-0.22517 0.5715,-0.34847 0.91017,-0.36991 0.0282,-0.003 0.0564,-0.004 0.0847,-0.004 z"
         fill="#000000"
         id="path12-3"
         style="stroke-width:0.230633" />
      <path
         d="m -309.50565,183.70986 c 0.19755,0 0.34043,0.0643 0.42862,0.193 0.0212,0.0295 0.037,0.0616 0.0476,0.0965 0.004,0.005 0.005,0.0121 0.005,0.0201 0.20461,-0.19299 0.43039,-0.29619 0.67733,-0.3096 0.19756,0 0.33161,0.0523 0.40217,0.15681 0.0247,0.0322 0.037,0.067 0.037,0.10454 0,0.10454 -0.0582,0.17692 -0.17462,0.21713 -0.0388,0.0134 -0.0776,0.0201 -0.11642,0.0201 -0.10936,0 -0.17463,-0.0362 -0.19579,-0.10856 -0.004,-0.0107 -0.005,-0.0215 -0.005,-0.0322 0,-0.0885 0.06,-0.15413 0.17991,-0.19702 l 0.005,-0.004 c 0.0282,-0.008 0.0582,-0.0147 0.09,-0.0201 l -0.10583,-0.0362 c -0.0459,-0.005 -0.0847,-0.009 -0.11642,-0.0121 -0.14816,0 -0.28927,0.0442 -0.42333,0.13268 -0.10936,0.0751 -0.20285,0.17424 -0.28046,0.29754 -0.007,0.0134 -0.0124,0.0241 -0.0159,0.0322 l -0.16934,0.5227 -0.21166,0.63528 c -0.0318,0.0697 -0.097,0.10723 -0.1958,0.11259 -0.0882,-0.0134 -0.13934,-0.0496 -0.15345,-0.10856 0,0.005 0.0159,-0.0523 0.0476,-0.1729 l 0.30692,-0.9288 c 0.0564,-0.17155 0.0847,-0.28413 0.0847,-0.33775 0,-0.1233 -0.0547,-0.18495 -0.16404,-0.18495 -0.14464,0 -0.26282,0.12732 -0.35454,0.38197 -0.0106,0.0295 -0.0212,0.0617 -0.0317,0.0965 -0.0388,0.059 -0.0688,0.0898 -0.09,0.0925 -0.0423,0 -0.0635,-0.0134 -0.0635,-0.0402 0,-0.0429 0.0317,-0.13268 0.0953,-0.26939 0.0247,-0.0483 0.0476,-0.0885 0.0688,-0.12062 0.0847,-0.13135 0.1905,-0.2064 0.3175,-0.22517 0.0247,-0.003 0.0494,-0.004 0.0741,-0.004 z"
         fill="#000000"
         id="path14-8"
         style="stroke-width:0.230633" />
      <path
         d="m 36.82151,-199.66861 c 2.21332,0 3.76487,1.01808 4.65456,3.05426 l 1.56236,-2.41791 c 0.28233,-0.42406 0.47732,-0.63651 0.58558,-0.63651 0.23866,0 0.35799,0.1411 0.35799,0.42407 l -1.75767,9.28994 c -0.1956,0.53709 -0.35799,0.82016 -0.48838,0.84845 -0.2602,0 -0.3906,-0.14109 -0.3906,-0.42407 l 0.1304,-2.29068 v -0.085 c 0,-3.90269 -1.25856,-6.06607 -3.77575,-6.49029 -0.28234,-0.0561 -0.5862,-0.085 -0.91135,-0.085 -1.69258,0 -3.13562,0.89077 -4.3291,2.67241 -0.91134,1.3575 -1.36707,2.81391 -1.36707,4.36932 0,1.69675 0.53145,2.91284 1.59496,3.6481 0.13041,0.085 0.26019,0.15552 0.39059,0.21243 0.10827,0.032 0.83544,0.28299 2.1808,0.76315 1.99632,0.679 3.18981,1.18772 3.5804,1.52713 0.17346,0.14108 0.35799,0.3391 0.5536,0.59401 1.06327,1.3009 1.5949,2.95523 1.5949,4.96318 0,2.60171 -0.78118,5.01969 -2.34355,7.25377 -1.77937,2.34728 -3.75399,3.56328 -5.92396,3.64809 -2.51713,0 -4.35075,-1.01808 -5.50082,-3.05423 l -1.59496,2.41797 c -0.28234,0.42407 -0.47733,0.6365 -0.58558,0.6365 -0.23866,0 -0.35799,-0.14108 -0.35799,-0.42407 l 1.85528,-9.54453 v -0.085 c 0.0431,-0.19798 0.0763,-0.31103 0.0978,-0.33908 0.0867,-0.11303 0.1956,-0.16995 0.32539,-0.16995 0.26019,0 0.39059,0.15551 0.39059,0.46655 l -0.0652,0.29661 c -0.1304,1.01808 -0.19499,1.78164 -0.19499,2.29068 0,3.19564 1.24774,5.1611 3.74316,5.89636 0.60773,0.198 1.25856,0.29661 1.95296,0.29661 1.71429,0 3.17898,-0.96149 4.39419,-2.88454 0.97647,-1.49881 1.46468,-3.13905 1.46468,-4.92069 0,-2.20586 -0.78118,-3.63397 -2.34354,-4.28443 l -0.65097,-0.21242 -3.48279,-1.18779 c -1.43215,-0.5371 -2.43034,-1.66853 -2.99452,-3.39357 -0.26018,-0.82015 -0.39059,-1.69684 -0.39059,-2.63001 0,-2.5735 0.82455,-4.89248 2.47371,-6.95693 1.64915,-2.03616 3.5045,-3.05424 5.56596,-3.05424 z"
         fill="#000000"
         id="path4-17"
         style="stroke-width:1.85791" />
      <path
         d="m 51.86561,-199.20197 c 0.28234,0 0.4232,0.15552 0.4232,0.46656 l -3.38511,17.90119 c 0.93305,-0.48098 2.13737,-1.79574 3.61295,-3.94501 1.71429,-2.48868 3.29837,-3.73299 4.75223,-3.73299 1.04155,0 1.73595,0.56596 2.08311,1.69683 0.0868,0.31104 0.13041,0.6365 0.13041,0.97568 0,1.1594 -0.36906,1.96544 -1.1067,2.41789 -0.23866,0.11304 -0.46625,0.16995 -0.6835,0.16995 -0.67268,0 -1.07416,-0.38158 -1.20431,-1.14538 -0.0247,-0.11304 -0.0307,-0.22606 -0.0307,-0.3391 0,-0.79201 0.27127,-1.414 0.81379,-1.86645 l 0.0307,-0.0401 c 0.28234,-0.22606 0.61843,-0.35353 1.00902,-0.38159 l -0.1304,-0.16993 c -0.17346,-0.16996 -0.40166,-0.28298 -0.6835,-0.3391 -0.0431,-0.032 -0.14086,-0.0401 -0.2928,-0.0401 -1.15005,0 -2.54966,1.1453 -4.19883,3.43597 -0.0868,0.11304 -0.17345,0.2405 -0.26018,0.38158 l -0.1956,0.25492 c -1.12836,1.52712 -2.06141,2.5735 -2.79923,3.13906 3.21153,0.53709 4.81733,2.02204 4.81733,4.45413 0,0.39601 -0.0431,0.83426 -0.13041,1.31502 -0.17346,0.90495 -0.26019,1.69673 -0.26019,2.37547 0,1.3292 0.34692,1.99376 1.04156,1.99376 0.99819,0 1.80109,-1.1736 2.40863,-3.52087 0.15192,-0.48098 0.29278,-1.06049 0.42319,-1.73924 0.17345,-0.48098 0.32539,-0.73509 0.45579,-0.76396 0.26019,0 0.39059,0.1411 0.39059,0.42407 0,0.45213 -0.20605,1.3716 -0.61842,2.75731 -0.17346,0.56516 -0.358,1.07459 -0.55359,1.52712 -0.6944,1.49883 -1.55155,2.24828 -2.57139,2.24828 -1.19349,0 -2.06146,-0.67899 -2.60399,-2.03616 -0.26018,-0.65013 -0.39059,-1.37161 -0.39059,-2.16347 0,-0.31103 0.0431,-0.80596 0.13041,-1.4847 0.0652,-0.28299 0.0978,-0.57959 0.0978,-0.89078 0,-1.78164 -0.97647,-2.92702 -2.92943,-3.43605 -0.28233,-0.085 -0.56405,-0.1411 -0.84632,-0.16996 -1.08499,5.88218 -1.69253,8.9789 -1.82274,9.28994 -0.21713,0.53709 -0.5862,0.83426 -1.1067,0.89086 -0.52099,0 -0.82455,-0.2966 -0.91135,-0.89086 -0.0246,-0.11304 -0.0307,-0.21244 -0.0307,-0.29661 0,-0.22605 0.0431,-0.5371 0.1304,-0.93326 l 4.71965,-24.43391 0.0978,-0.84837 c 0,-0.31102 -0.15192,-0.50904 -0.45579,-0.59401 -0.26019,-0.085 -0.65096,-0.12745 -1.17178,-0.12745 -0.47731,0 -0.73775,-0.16996 -0.78118,-0.50905 0,-0.48098 0.20606,-0.76316 0.61849,-0.84837 z"
         fill="#000000"
         id="path6"
         style="stroke-width:1.85791" />
      <path
         d="m 69.91759,-187.57887 c -1.2152,0 -2.33272,0.65013 -3.35256,1.95126 -0.97649,1.24439 -1.68177,2.95532 -2.11572,5.13289 h 1.33453 c 4.36159,0 6.54238,-1.47061 6.54238,-4.41173 0,-1.1312 -0.42319,-1.93716 -1.2694,-2.4179 -0.30386,-0.14109 -0.68356,-0.22606 -1.13923,-0.25492 z m 0,-0.93327 c 1.56236,0 2.62564,0.70704 3.18982,2.12097 0.1956,0.45213 0.29278,0.94739 0.29278,1.48472 0,1.47059 -0.48839,2.68661 -1.46474,3.64816 l -0.0307,0.0401 c -0.28233,0.25412 -0.59664,0.48099 -0.94393,0.67899 -1.19349,0.65012 -2.85348,0.97567 -4.98002,0.97567 h -1.72512 c -0.34692,1.83823 -0.521,3.30875 -0.521,4.41172 0,2.23408 0.49885,3.73291 1.4973,4.49648 0.36906,0.28297 0.81372,0.42406 1.33452,0.42406 1.95296,0 3.71063,-0.84838 5.27299,-2.54519 0.4558,-0.48099 0.86798,-1.0322 1.23685,-1.65443 0.15194,-0.28298 0.2928,-0.42406 0.4232,-0.42406 0.19499,0 0.32539,0.18358 0.39059,0.55152 0,0.31103 -0.36907,0.91908 -1.10663,1.82405 -1.80109,2.12097 -3.89509,3.18153 -6.28207,3.18153 -1.95296,0 -3.38511,-1.08879 -4.29651,-3.26635 -0.54253,-1.27259 -0.81372,-2.74319 -0.81372,-4.41172 0,-3.7046 1.1067,-6.70234 3.32002,-8.99301 1.62751,-1.69683 3.36347,-2.5452 5.20792,-2.5452 z"
         fill="#000000"
         id="path8"
         style="stroke-width:1.85791" />
      <path
         d="m 80.28869,-188.51214 c 1.12835,0 1.92042,0.62207 2.37609,1.86646 0.19499,0.48098 0.29279,1.01807 0.29279,1.61201 0,0.50903 -0.18454,1.414 -0.55298,2.71482 -1.12841,3.84609 -1.69259,6.58931 -1.69259,8.22952 0,2.5169 0.86798,3.80362 2.60393,3.86021 1.2152,0 2.2134,-1.18778 2.99458,-3.56328 -0.0247,-0.14109 -0.0307,-0.39601 -0.0307,-0.76396 0,-0.76315 0.0978,-1.69682 0.29279,-2.79971 l 1.85528,-9.50205 c 0.19499,-0.7351 0.59665,-1.13127 1.20438,-1.18778 0.54252,0.14108 0.85709,0.52347 0.94387,1.1453 0,-0.032 -0.163,0.89085 -0.48839,2.7573 l -1.36707,7.12656 c -0.23866,1.10297 -0.35799,2.13516 -0.35799,3.09665 0.17346,2.31897 0.97648,3.54917 2.40862,3.69057 1.45393,0 2.64736,-1.2443 3.58047,-3.73298 0.73776,-1.92305 1.2911,-4.08643 1.65999,-6.49021 0.0868,-0.53711 0.1304,-0.96158 0.1304,-1.27261 0,-1.38571 -0.3906,-2.58761 -1.17178,-3.60569 -0.32539,-0.36794 -0.48839,-0.74952 -0.48839,-1.14537 0,-0.70704 0.29279,-1.28671 0.87886,-1.73924 0.23866,-0.19799 0.48839,-0.2966 0.74865,-0.2966 0.60772,0 1.03073,0.49462 1.26939,1.48471 0.10825,0.42407 0.163,0.91908 0.163,1.48472 0,1.75334 -0.43426,4.42576 -1.30199,8.01733 -0.28234,1.15949 -0.56405,2.16346 -0.84626,3.01183 -1.15007,3.47846 -2.72332,5.2177 -4.71965,5.2177 -2.10488,0 -3.46106,-0.98986 -4.06867,-2.96943 -0.86797,1.97957 -1.99632,2.96943 -3.3851,2.96943 -2.12661,0 -3.53704,-0.94738 -4.23144,-2.84221 -0.26018,-0.7351 -0.39059,-1.56952 -0.39059,-2.50271 0,-1.4423 0.57513,-4.19962 1.72513,-8.27193 0.0431,-0.085 0.0756,-0.18358 0.0978,-0.29661 0.39059,-1.2443 0.58619,-2.23416 0.58619,-2.96942 0,-0.93318 -0.27125,-1.39981 -0.81372,-1.39981 -1.32364,0 -2.37608,1.56951 -3.15727,4.70857 -0.0431,0.16994 -0.0868,0.35352 -0.13041,0.55152 -0.23865,0.48098 -0.41211,0.7351 -0.52099,0.76316 -0.26019,0 -0.39059,-0.14109 -0.39059,-0.42407 0,-0.50903 0.22759,-1.39989 0.68351,-2.67249 0.95476,-2.57349 2.15914,-3.86021 3.613,-3.86021 z"
         fill="#000000"
         id="path10"
         style="stroke-width:1.85791" />
      <path
         d="m 102.71247,-188.51214 c 1.21519,0 2.094,0.66456 2.63652,1.99376 0.19498,0.50903 0.31493,1.0746 0.35799,1.69682 1.38873,-2.46038 3.08131,-3.69058 5.07769,-3.69058 1.8661,0 3.04877,0.93327 3.54787,2.79972 0.1304,0.50904 0.19498,1.08879 0.19498,1.73923 0,1.44231 -0.66185,4.55306 -1.98549,9.33243 -0.39059,1.24429 -0.5862,2.24818 -0.5862,3.01174 0,0.93328 0.26019,1.3999 0.78119,1.3999 1.43214,0 2.53878,-1.75335 3.32002,-5.2601 0.10826,-0.45213 0.21713,-0.69262 0.3254,-0.72148 v -0.0401 h 0.163 c 0.26018,0 0.39059,0.14109 0.39059,0.42407 0,0.48098 -0.22759,1.3716 -0.68351,2.67241 -0.93311,2.5735 -2.1266,3.86029 -3.58046,3.86029 -1.10663,0 -1.89871,-0.60845 -2.37609,-1.82412 -0.19498,-0.50905 -0.29279,-1.06049 -0.29279,-1.65435 0,-0.56594 0.10826,-1.21607 0.32539,-1.95133 1.4105,-4.949 2.11572,-8.24356 2.11572,-9.88387 0,-1.97956 -0.58558,-2.96935 -1.75767,-2.96935 -1.95296,0 -3.59129,1.41401 -4.91493,4.24195 -0.15193,0.31103 -0.28233,0.62207 -0.39059,0.93326 l -0.42319,2.12097 c -0.10826,0.65013 -0.2928,1.59783 -0.5536,2.8422 l -0.7161,3.81781 c -0.36907,1.95126 -0.57513,2.99763 -0.61843,3.13905 -0.19499,0.7351 -0.59665,1.13119 -1.20432,1.18778 -0.54252,-0.14109 -0.85715,-0.52347 -0.94393,-1.14537 0,0.0561 0.0978,-0.55154 0.29278,-1.82405 l 1.88788,-9.79906 c 0.34753,-1.80985 0.521,-2.99764 0.521,-3.56327 0,-1.30081 -0.33647,-1.95127 -1.00902,-1.95127 -0.88968,0 -1.61662,1.34331 -2.18079,4.02991 -0.0652,0.31103 -0.1304,0.65013 -0.19499,1.01808 -0.23867,0.62208 -0.42319,0.94738 -0.55359,0.9756 -0.2602,0 -0.39059,-0.1411 -0.39059,-0.42407 0,-0.45213 0.21713,-1.4706 0.65096,-3.05424 v -0.0401 c 0,-0.032 0.0123,-0.0401 0.0307,-0.0401 v -0.0401 -0.0401 l 0.29278,-0.89078 c 0.47732,-1.13127 0.96559,-1.83824 1.46469,-2.12105 0.30386,-0.19801 0.62932,-0.29661 0.97648,-0.29661 z"
         fill="#000000"
         id="path12"
         style="stroke-width:1.85791" />
      <path
         d="m 127.91331,-187.57887 c -1.2152,0 -2.33272,0.65013 -3.35263,1.95126 -0.97648,1.24439 -1.6817,2.95532 -2.11565,5.13289 h 1.33447 c 4.36165,0 6.54244,-1.47061 6.54244,-4.41173 0,-1.1312 -0.42319,-1.93716 -1.26945,-2.4179 -0.30387,-0.14109 -0.6835,-0.22606 -1.13918,-0.25492 z m 0,-0.93327 c 1.56237,0 2.62564,0.70704 3.18982,2.12097 0.19498,0.45213 0.29278,0.94739 0.29278,1.48472 0,1.47059 -0.48839,2.68661 -1.46469,3.64816 l -0.0307,0.0401 c -0.28233,0.25412 -0.59666,0.48099 -0.94394,0.67899 -1.19349,0.65012 -2.85353,0.97567 -4.98007,0.97567 h -1.72512 c -0.34693,1.83823 -0.521,3.30875 -0.521,4.41172 0,2.23408 0.49885,3.73291 1.49722,4.49648 0.36907,0.28297 0.81379,0.42406 1.33454,0.42406 1.95296,0 3.71062,-0.84838 5.27298,-2.54519 0.4558,-0.48099 0.86798,-1.0322 1.23692,-1.65443 0.15193,-0.28298 0.29279,-0.42406 0.42319,-0.42406 0.19499,0 0.32539,0.18358 0.39059,0.55152 0,0.31103 -0.36906,0.91908 -1.1067,1.82405 -1.80102,2.12097 -3.89509,3.18153 -6.282,3.18153 -1.95296,0 -3.38511,-1.08879 -4.29651,-3.26635 -0.54252,-1.27259 -0.81372,-2.74319 -0.81372,-4.41172 0,-3.7046 1.10664,-6.70234 3.32003,-8.99301 1.62745,-1.69683 3.36339,-2.5452 5.20785,-2.5452 z"
         fill="#000000"
         id="path14"
         style="stroke-width:1.85791" />
      <path
         d="m 142.8413,-188.51214 c 1.71423,0 2.89684,0.69261 3.54786,2.07857 0.21713,0.48098 0.32538,1.00397 0.32538,1.56952 0,1.27261 -0.36905,2.03616 -1.10668,2.29069 -0.13041,0.0561 -0.2602,0.085 -0.3906,0.085 -0.60773,-0.11303 -0.94394,-0.52347 -1.00902,-1.2302 0,-0.76316 0.2928,-1.32919 0.8788,-1.69682 0.21714,-0.1411 0.44472,-0.21244 0.68357,-0.21244 -0.4558,-1.24429 -1.43221,-1.89475 -2.92944,-1.95126 -1.75766,0 -2.90778,0.86248 -3.45024,2.5876 -0.13041,0.42407 -0.19499,0.83426 -0.19499,1.2302 0,1.10288 0.52099,1.85233 1.56237,2.24827 l 0.0307,0.0401 c 0.15193,0.0561 0.44472,0.14108 0.87886,0.25491 1.34536,0.36795 2.24587,0.76317 2.70154,1.18771 0.19499,0.16996 0.37952,0.36795 0.55359,0.59402 0.67269,0.87666 1.00902,1.90886 1.00902,3.09664 0,1.47053 -0.42319,2.87043 -1.26938,4.19954 -1.21521,1.89483 -2.97288,2.8422 -5.27299,2.8422 -2.0181,0 -3.41765,-0.7351 -4.1989,-2.20587 -0.30386,-0.56594 -0.45578,-1.20188 -0.45578,-1.90893 0,-1.38572 0.41211,-2.27649 1.23691,-2.67242 0.19499,-0.085 0.39059,-0.12746 0.58558,-0.12746 0.71611,0.1411 1.11752,0.6365 1.20438,1.48471 0,0.87668 -0.2928,1.52712 -0.87887,1.95135 -0.34692,0.28297 -0.73776,0.38158 -1.17178,0.29661 0.49886,1.49882 1.73596,2.24826 3.71063,2.24826 2.23504,0 3.69979,-1.06048 4.39418,-3.18145 0.17346,-0.5371 0.26019,-1.03227 0.26019,-1.48471 0,-1.3575 -0.64014,-2.29068 -1.92042,-2.79972 h -0.0307 c -0.3254,-0.11303 -0.8029,-0.25492 -1.43222,-0.42406 -1.95289,-0.5371 -3.04876,-1.66854 -3.28742,-3.39358 -0.043,-0.25412 -0.0652,-0.52347 -0.0652,-0.80605 0,-1.41392 0.41212,-2.72901 1.23691,-3.94501 1.01984,-1.49882 2.44117,-2.24827 4.26391,-2.24827 z"
         fill="#000000"
         id="path16"
         style="stroke-width:1.85791" />
      <path
         d="m 158.09873,-188.51214 c 1.7143,0 2.89689,0.69261 3.54792,2.07857 0.21713,0.48098 0.32539,1.00397 0.32539,1.56952 0,1.27261 -0.36907,2.03616 -1.10663,2.29069 -0.1304,0.0561 -0.2602,0.085 -0.3906,0.085 -0.60772,-0.11303 -0.94393,-0.52347 -1.00901,-1.2302 0,-0.76316 0.29279,-1.32919 0.8788,-1.69682 0.21713,-0.1411 0.44472,-0.21244 0.68357,-0.21244 -0.4558,-1.24429 -1.43222,-1.89475 -2.92951,-1.95126 -1.7576,0 -2.90772,0.86248 -3.45018,2.5876 -0.1304,0.42407 -0.19499,0.83426 -0.19499,1.2302 0,1.10288 0.52099,1.85233 1.56237,2.24827 l 0.0307,0.0401 c 0.15194,0.0561 0.44473,0.14108 0.87887,0.25491 1.34536,0.36795 2.24587,0.76317 2.70154,1.18771 0.1956,0.16996 0.37951,0.36795 0.55359,0.59402 0.67268,0.87666 1.00902,1.90886 1.00902,3.09664 0,1.47053 -0.42319,2.87043 -1.26939,4.19954 -1.21521,1.89483 -2.97287,2.8422 -5.27298,2.8422 -2.0181,0 -3.41772,-0.7351 -4.1989,-2.20587 -0.30386,-0.56594 -0.4558,-1.20188 -0.4558,-1.90893 0,-1.38572 0.41212,-2.27649 1.23686,-2.67242 0.1956,-0.085 0.39059,-0.12746 0.58619,-0.12746 0.71611,0.1411 1.11753,0.6365 1.20432,1.48471 0,0.87668 -0.29279,1.52712 -0.8788,1.95135 -0.34692,0.28297 -0.73776,0.38158 -1.17178,0.29661 0.49885,1.49882 1.73595,2.24826 3.71063,2.24826 2.23504,0 3.69979,-1.06048 4.39418,-3.18145 0.17346,-0.5371 0.26019,-1.03227 0.26019,-1.48471 0,-1.3575 -0.64014,-2.29068 -1.92042,-2.79972 h -0.0307 c -0.32539,-0.11303 -0.80289,-0.25492 -1.4322,-0.42406 -1.95296,-0.5371 -3.04877,-1.66854 -3.28744,-3.39358 -0.0431,-0.25412 -0.0652,-0.52347 -0.0652,-0.80605 0,-1.41392 0.41213,-2.72901 1.23691,-3.94501 1.01985,-1.49882 2.44118,-2.24827 4.26392,-2.24827 z"
         fill="#000000"
         id="path18"
         style="stroke-width:1.85791" />
      <path
         d="m -379.42325,70.598581 c -1.9116,0 -3.76218,0.902483 -5.55175,2.707511 -0.73212,0.713105 -1.38288,1.548757 -1.95227,2.507019 -1.54555,2.562663 -2.45051,5.62676 -2.71487,9.192283 -0.0409,0.401127 -0.061,0.757645 -0.061,1.069626 0,2.852358 0.78291,4.90255 2.3488,6.150498 0.81344,0.646206 1.7489,0.969308 2.80639,0.969308 1.91156,0 3.752,-0.935891 5.52123,-2.807818 0.36605,-0.379009 0.70159,-0.77994 1.00665,-1.203351 1.99292,-2.718633 3.22325,-5.961054 3.691,-9.727076 0.10173,-0.735401 0.15252,-1.40391 0.15252,-2.005585 0,-3.052976 -0.93548,-5.125404 -2.80642,-6.217323 -0.0203,0 -0.0409,-0.01255 -0.061,-0.0316 -0.73211,-0.401117 -1.52519,-0.601988 -2.37931,-0.601988 z m 0.18302,-0.83565 c 2.58268,0 4.60613,1.025028 6.07032,3.07521 1.13882,1.604477 1.70823,3.576645 1.70823,5.916456 0,3.454092 -1.11849,6.651924 -3.35545,9.593409 -2.01327,2.674153 -4.37226,4.434591 -7.07695,5.281422 -0.9558,0.28994 -1.90143,0.434592 -2.83689,0.434592 -2.54201,0 -4.54512,-0.980488 -6.00932,-2.941543 -1.19982,-1.604478 -1.79974,-3.59894 -1.79974,-5.983347 0,-3.342613 1.08799,-6.507019 3.26394,-9.493101 2.01327,-2.696397 4.37225,-4.490301 7.07698,-5.381673 0.99645,-0.334157 1.98275,-0.501552 2.95888,-0.501552 z"
         fill="#000000"
         id="path4-57-0"
         style="stroke-width:1.59659" />
      <path
         d="m 209.08618,111.43296 c -1.69162,0 -3.32925,0.92256 -4.91289,2.76774 -0.64786,0.72897 -1.22373,1.58321 -1.72761,2.56279 -1.36769,2.61967 -2.16851,5.75193 -2.40246,9.39677 -0.0362,0.41005 -0.054,0.7745 -0.054,1.09342 0,2.91581 0.69284,5.01161 2.07853,6.28732 0.71983,0.66058 1.54765,0.99087 2.48344,0.99087 1.69161,0 3.32025,-0.95671 4.88589,-2.87028 0.32393,-0.38744 0.62086,-0.79729 0.8908,-1.23012 1.7636,-2.77911 2.85236,-6.09366 3.26627,-9.94346 0.09,-0.75176 0.13498,-1.43514 0.13498,-2.0502 0,-3.12089 -0.82782,-5.23942 -2.48345,-6.35563 -0.0179,0 -0.0362,-0.0129 -0.054,-0.0323 -0.64785,-0.41004 -1.34969,-0.61538 -2.10552,-0.61538 z m 0.16196,-0.85424 c 2.28549,0 4.07608,1.04783 5.37179,3.14362 1.00777,1.64017 1.51166,3.65621 1.51166,6.04807 0,3.53093 -0.98978,6.7999 -2.96933,9.80682 -1.7816,2.73364 -3.86913,4.53324 -6.26259,5.39891 -0.84581,0.29639 -1.68262,0.44426 -2.51043,0.44426 -2.24949,0 -4.02209,-1.0023 -5.3178,-3.00698 -1.06176,-1.64017 -1.59264,-3.679 -1.59264,-6.11645 0,-3.41697 0.96278,-6.65177 2.88835,-9.70428 1.78159,-2.75638 3.86912,-4.59019 6.26259,-5.50139 0.8818,-0.34159 1.7546,-0.51271 2.6184,-0.51271 z"
         fill="#000000"
         id="path4-57"
         style="stroke-width:1.51854" />
      <path
         d="m 71.293979,-1.6018641 h 0.290167 2.777439 c 0.290169,0 0.469815,0.0633 0.538906,0.19052 0.02783,0.0546 0.06911,0.16324 0.124368,0.32698 L 79.605552,13.139286 81.926997,1.0137759 c 0.04143,-0.16324001 0.06219,-0.35428001 0.06219,-0.57219001 0,-0.78115 -0.469814,-1.18079 -1.409443,-1.19896 -0.248729,0 -0.373089,-0.0999 -0.373089,-0.29969999 0,-0.36353 0.12436,-0.54499 0.373089,-0.54499 l 2.093448,0.0819 h 0.02076 l 2.072717,-0.0819 h 0.02075 c 0.17963,0 0.269445,0.0999 0.269445,0.29968 0,0.36354999 -0.117466,0.54494999 -0.352365,0.54494999 -1.077818,0.0546 -1.768718,0.49948 -2.072716,1.33521 -0.05527,0.18177 -0.110532,0.40886 -0.165801,0.68121001 L 79.564176,16.436336 c -0.06911,0.345 -0.138189,0.52677 -0.20728,0.54494 l -0.02076,0.0258 h -0.103644 c -0.13819,0 -0.248721,-0.10917 -0.331641,-0.32698 -0.01368,-0.0546 -0.03451,-0.11792 -0.06219,-0.19052 L 73.677599,0.44029589 73.491074,-0.04991411 70.755088,14.337216 c -0.05527,0.2724 -0.08292,0.48146 -0.08292,0.62672 0,0.61761 0.297099,0.99907 0.891265,1.14443 0.13819,0.036 0.2971,0.0546 0.476727,0.0546 0.276341,0 0.414542,0.0999 0.414542,0.29968 0,0.36303 -0.124363,0.54495 -0.373089,0.54495 l -2.072717,-0.0819 h -0.06217 l -2.051989,0.0819 h -0.02076 c -0.17963,0 -0.269446,-0.0999 -0.269446,-0.29968 0,-0.36303 0.117469,-0.54495 0.352369,-0.54495 1.091632,-0.0546 1.782538,-0.50875 2.072717,-1.3624 0.05527,-0.18178 0.110535,-0.40886 0.165803,-0.68126 l 2.777442,-14.63235011 c 0,-0.16322 -0.469817,-0.2451 -1.409449,-0.2451 -0.359262,0 -0.552724,-0.0999 -0.580358,-0.29968999 0,-0.32698 0.103642,-0.50875 0.310887,-0.545 z"
         fill="#000000"
         id="path4-1-0"
         style="stroke-width:1.18825" />
      <path
         d="m 435.64361,-42.343223 c 0.30237,0 0.50395,0.24354 0.60474,0.73075 0.26205,0.84141 0.67528,1.47247 1.23971,1.89322 0.28221,0.22158 0.42331,0.44314 0.42331,0.66428 0,0.24354 -0.17134,0.4764 -0.51402,0.69754 -0.90711,0.48708 -1.70334,1.2068 -2.38871,2.15899 -0.22173,0.2881 -0.41324,0.43184 -0.5745,0.43184 -0.28221,0 -0.47371,-0.15504 -0.5745,-0.46512 -0.0202,-0.0665 -0.0302,-0.13307 -0.0302,-0.19898 0,-0.35401 0.47371,-1.00756 1.42113,-1.95969 h -9.67583 c -0.62489,0 -0.96758,-0.15504 -1.02805,-0.46512 -0.0202,-0.0665 -0.0302,-0.13306 -0.0302,-0.19897 0.12095,-0.44252 0.47371,-0.66428 1.05829,-0.66428 h 10.1898 c -0.40315,-0.57558 -0.64505,-1.21789 -0.72568,-1.92649 0,-0.35401 0.1411,-0.57558 0.42331,-0.66427 0.0605,-0.0251 0.12096,-0.0314 0.18142,-0.0314 z"
         fill="#000000"
         id="path2-5-9-7"
         style="stroke-width:1.58454" />
      <path
         d="m 217.22621,101.88964 c 0.30237,0 0.50395,0.24354 0.60474,0.73075 0.26205,0.84141 0.67528,1.47248 1.23971,1.89322 0.28221,0.22158 0.42331,0.44314 0.42331,0.66428 0,0.24354 -0.17134,0.47641 -0.51402,0.69754 -0.90711,0.48708 -1.70334,1.2068 -2.38871,2.15899 -0.22173,0.2881 -0.41324,0.43185 -0.5745,0.43185 -0.28221,0 -0.47371,-0.15505 -0.5745,-0.46512 -0.0202,-0.0665 -0.0302,-0.13307 -0.0302,-0.19898 0,-0.35401 0.47371,-1.00756 1.42113,-1.95969 h -9.67583 c -0.62489,0 -0.96758,-0.15504 -1.02805,-0.46512 -0.0202,-0.0665 -0.0302,-0.13306 -0.0302,-0.19897 0.12095,-0.44252 0.47371,-0.66428 1.05829,-0.66428 h 10.1898 c -0.40315,-0.57558 -0.64505,-1.21789 -0.72568,-1.92649 0,-0.35401 0.1411,-0.57558 0.42331,-0.66427 0.0605,-0.0251 0.12096,-0.0314 0.18142,-0.0314 z"
         fill="#000000"
         id="path2-5-9-97"
         style="stroke-width:1.58454" />
      <path
         d="m -370.6266,59.900147 c 0.30237,0 0.50395,0.24354 0.60474,0.73075 0.26205,0.84141 0.67528,1.47248 1.23971,1.89322 0.28221,0.22158 0.42331,0.44314 0.42331,0.66428 0,0.24354 -0.17134,0.47641 -0.51402,0.69754 -0.90711,0.48708 -1.70334,1.2068 -2.38871,2.15899 -0.22173,0.2881 -0.41324,0.43185 -0.5745,0.43185 -0.28221,0 -0.47371,-0.15505 -0.5745,-0.46512 -0.0202,-0.0665 -0.0302,-0.13307 -0.0302,-0.19898 0,-0.35401 0.47371,-1.00756 1.42113,-1.95969 h -9.67583 c -0.62489,0 -0.96758,-0.15504 -1.02805,-0.46512 -0.0202,-0.0665 -0.0302,-0.13306 -0.0302,-0.19897 0.12095,-0.44252 0.47371,-0.66428 1.05829,-0.66428 h 10.1898 c -0.40315,-0.57558 -0.64505,-1.21789 -0.72568,-1.92649 0,-0.35401 0.1411,-0.57558 0.42331,-0.66427 0.0605,-0.0251 0.12096,-0.0314 0.18142,-0.0314 z"
         fill="#000000"
         id="path2-5-9-1"
         style="stroke-width:1.58454" />
      <text
         xml:space="preserve"
         style="font-style:normal;font-weight:normal;font-size:13.4566px;line-height:1.25;font-family:sans-serif;letter-spacing:0px;word-spacing:0px;fill:#000000;fill-opacity:1;stroke:none;stroke-width:0.201847"
         x="109.89857"
         y="20.624573"
         id="text51334-4-0-5"
         transform="scale(0.76289062,1.3108039)"><tspan
           sodipodi:role="line"
           id="tspan51332-4-4-82"
           style="font-size:13.4566px;stroke-width:0.201847"
           x="109.89857"
           y="20.624573">cm</tspan></text>
      <text
         xml:space="preserve"
         style="font-style:normal;font-weight:normal;font-size:13.2241px;line-height:1.25;font-family:sans-serif;letter-spacing:0px;word-spacing:0px;fill:#000000;fill-opacity:1;stroke:none;stroke-width:0.198362"
         x="-447.18674"
         y="81.573067"
         id="text51334-4-0-8"
         transform="scale(0.83205301,1.2018465)"><tspan
           sodipodi:role="line"
           id="tspan51332-4-4-8"
           style="font-size:13.2241px;stroke-width:0.198362"
           x="-447.18674"
           y="81.573067">cm</tspan></text>
      <text
         xml:space="preserve"
         style="font-style:normal;font-weight:normal;font-size:15.6877px;line-height:1.25;font-family:sans-serif;letter-spacing:0px;word-spacing:0px;fill:#000000;fill-opacity:1;stroke:none;stroke-width:0.235315"
         x="241.31215"
         y="123.63016"
         id="text51334-4-0"
         transform="scale(0.88938244,1.1243757)"><tspan
           sodipodi:role="line"
           id="tspan51332-4-4"
           style="font-size:15.6877px;stroke-width:0.235315"
           x="241.31215"
           y="123.63016">cm</tspan></text>
      <text
         xml:space="preserve"
         style="font-style:normal;font-weight:normal;font-size:10.5833px;line-height:1.25;font-family:sans-serif;letter-spacing:0px;word-spacing:0px;fill:#000000;fill-opacity:1;stroke:none;stroke-width:0.264583"
         x="-128.34586"
         y="95.028755"
         id="text74263-1"><tspan
           sodipodi:role="line"
           id="tspan74261-4"
           style="stroke-width:0.264583"
           x="-128.34586"
           y="95.028755">I</tspan></text>
      <path
         d="m -137.52535,66.394334 h 0.34968 12.23891 c 0.39965,0 0.61612,0.0738 0.64942,0.22196 h 0.025 c 0.0333,0.12718 0.0333,0.33835 0,0.63489 l -0.49955,5.49183 c -0.11654,0.48653 -0.23311,0.75133 -0.34967,0.79362 -0.19983,0 -0.29974,-0.12718 -0.29974,-0.38094 0,-0.10558 0.0167,-0.29636 0.0499,-0.57111 0.0499,-0.57171 0.075,-1.1428 0.075,-1.71422 0,-1.41793 -0.28307,-2.35963 -0.84923,-2.82528 l -0.025,-0.03 c -0.53286,-0.42291 -1.45702,-0.63485 -2.7725,-0.63485 h -3.29701 c -0.61611,0 -0.98244,0.11638 -1.09901,0.34914 h -0.025 v 0.03 c -0.05,0.0846 -0.0916,0.21177 -0.12488,0.38094 v 0.03 l -0.025,0.03 c -0.0167,0.0845 -0.0416,0.22196 -0.0749,0.41274 l -1.59856,8.06318 h 2.27295 c 1.21556,0 2.03149,-0.28554 2.44779,-0.85712 l 0.025,-0.03 c 0.28306,-0.40193 0.53284,-1.12162 0.74931,-2.15861 0.0833,-0.40194 0.20815,-0.62431 0.37466,-0.66668 0.18317,0 0.28308,0.11638 0.29973,0.34914 0,0.10559 -0.025,0.27537 -0.0749,0.50813 l -1.37376,6.88858 c -0.16651,0.42354 -0.2914,0.6455 -0.37465,0.6666 -0.19983,0 -0.29974,-0.12716 -0.29974,-0.38092 0,-0.0846 0.025,-0.20098 0.0749,-0.34915 0.11657,-0.63493 0.17485,-1.15342 0.17485,-1.55554 0,-0.61369 -0.18317,-1.0158 -0.54951,-1.20628 -0.31638,-0.14818 -0.82425,-0.22196 -1.52362,-0.22196 h -2.42285 l -1.5486,7.90441 c -0.0666,0.31735 -0.0999,0.56091 -0.0999,0.73014 0,0.29635 0.10823,0.47631 0.32471,0.53991 0.11656,0.042 0.27475,0.0738 0.47456,0.0954 0.41629,0.042 0.84924,0.0636 1.29883,0.0636 0.41629,0 0.64941,0.012 0.69937,0.03 l 0.12488,0.22196 c 0.0166,0.042 0.025,0.0846 0.025,0.12718 0,0.40193 -0.17484,0.60313 -0.52452,0.60313 l -3.69665,-0.0954 h -0.025 l -3.27204,0.0954 h -0.025 c -0.24978,0 -0.37466,-0.12718 -0.37466,-0.38094 0,-0.35994 0.13321,-0.5609 0.39964,-0.60314 h 0.29973 c 1.08235,0 1.73176,-0.14817 1.94823,-0.44452 0.0999,-0.14818 0.19982,-0.44453 0.29973,-0.88887 0,-0.0239 0.008,-0.0738 0.025,-0.15898 l 3.29702,-16.79294 c 0.0833,-0.38093 0.12488,-0.63488 0.12488,-0.76187 0,-0.35995 -0.38298,-0.5501 -1.14896,-0.5711 h -0.025 -0.44959 c -0.43294,0 -0.66606,-0.11638 -0.69937,-0.34914 0,-0.38095 0.13322,-0.59272 0.39964,-0.63488 z"
         fill="#000000"
         id="path4-5-7-2-9"
         style="stroke-width:1.40792" />
      <path
         d="m -134.68568,-39.075066 c 0.30237,0 0.50395,0.24354 0.60474,0.73075 0.26205,0.84141 0.67528,1.47248 1.23971,1.89322 0.28221,0.22158 0.42331,0.44314 0.42331,0.66428 0,0.24354 -0.17134,0.47641 -0.51402,0.69754 -0.90711,0.48708 -1.70334,1.2068 -2.38871,2.15899 -0.22173,0.2881 -0.41324,0.43185 -0.5745,0.43185 -0.28221,0 -0.47371,-0.15505 -0.5745,-0.46512 -0.0202,-0.0665 -0.0302,-0.13307 -0.0302,-0.19898 0,-0.35401 0.47371,-1.00756 1.42113,-1.95969 h -9.67583 c -0.62489,0 -0.96758,-0.15504 -1.02805,-0.46512 -0.0202,-0.0665 -0.0302,-0.13306 -0.0302,-0.19897 0.12095,-0.44252 0.47371,-0.66428 1.05829,-0.66428 h 10.1898 c -0.40315,-0.57558 -0.64505,-1.21789 -0.72568,-1.92649 0,-0.35401 0.1411,-0.57558 0.42331,-0.66427 0.0605,-0.0251 0.12096,-0.0314 0.18142,-0.0314 z"
         fill="#000000"
         id="path2-5-9-9"
         style="stroke-width:1.58454" />
      <path
         d="m -147.52285,-31.08137 h 0.34968 12.23891 c 0.39965,0 0.61612,0.07042 0.64942,0.21168 h 0.025 c 0.0333,0.12129 0.0333,0.322679 0,0.605484 l -0.49955,5.237478 c -0.11654,0.463998 -0.23311,0.716532 -0.34967,0.756867 -0.19983,0 -0.29974,-0.121289 -0.29974,-0.363299 0,-0.10069 0.0167,-0.282628 0.0499,-0.544658 0.0499,-0.545228 0.075,-1.08987 0.075,-1.634822 0,-1.352261 -0.28307,-2.250354 -0.84923,-2.69444 l -0.025,-0.02864 c -0.53286,-0.403323 -1.45702,-0.60545 -2.7725,-0.60545 h -3.29701 c -0.61611,0 -0.98244,0.11099 -1.09901,0.33297 h -0.025 v 0.02864 c -0.05,0.08064 -0.0916,0.201959 -0.12488,0.36329 v 0.02864 l -0.025,0.02864 c -0.0167,0.08064 -0.0416,0.21168 -0.0749,0.393618 l -1.59856,7.68975 h 2.27295 c 1.21556,0 2.03149,-0.272321 2.44779,-0.817424 l 0.025,-0.02864 c 0.28306,-0.38332 0.53284,-1.069682 0.74931,-2.058636 0.0833,-0.383328 0.20815,-0.595402 0.37466,-0.635804 0.18317,0 0.28308,0.11099 0.29973,0.33297 0,0.100699 -0.025,0.262608 -0.0749,0.484588 l -1.37376,6.56955 c -0.16651,0.403918 -0.2914,0.615598 -0.37465,0.635728 -0.19983,0 -0.29974,-0.121272 -0.29974,-0.363282 0,-0.08064 0.025,-0.191668 0.0749,-0.332978 0.11657,-0.605524 0.17485,-1.100002 0.17485,-1.483496 0,-0.58527 -0.18317,-0.968758 -0.54951,-1.150411 -0.31638,-0.141319 -0.82425,-0.211681 -1.52362,-0.211681 h -2.42285 l -1.5486,7.538324 c -0.0666,0.30265 -0.0999,0.534929 -0.0999,0.696318 0,0.282629 0.10823,0.45426 0.32471,0.514909 0.11656,0.04002 0.27475,0.07042 0.47456,0.09097 0.41629,0.04002 0.84924,0.06062 1.29883,0.06062 0.41629,0 0.64941,0.01147 0.69937,0.02864 l 0.12488,0.21168 c 0.0166,0.04002 0.025,0.08064 0.025,0.121289 0,0.383311 -0.17484,0.575197 -0.52452,0.575197 l -3.69665,-0.09096 h -0.025 l -3.27204,0.09096 h -0.025 c -0.24978,0 -0.37466,-0.121289 -0.37466,-0.363298 0,-0.34327 0.13321,-0.534921 0.39964,-0.575205 h 0.29973 c 1.08235,0 1.73176,-0.141311 1.94823,-0.423931 0.0999,-0.141319 0.19982,-0.423947 0.29973,-0.847702 0,-0.02278 0.008,-0.07034 0.025,-0.151617 l 3.29702,-16.015194 c 0.0833,-0.36329 0.12488,-0.605476 0.12488,-0.726588 0,-0.343278 -0.38298,-0.524622 -1.14896,-0.544651 h -0.025 -0.44959 c -0.43294,0 -0.66606,-0.11099 -0.69937,-0.332969 0,-0.363308 0.13322,-0.565266 0.39964,-0.605476 z"
         fill="#000000"
         id="path4-5-7-5"
         style="stroke-width:1.37493" />
      <text
         xml:space="preserve"
         style="font-style:normal;font-weight:normal;font-size:14.3906px;line-height:1.25;font-family:sans-serif;letter-spacing:0px;word-spacing:0px;fill:#000000;fill-opacity:1;stroke:none;stroke-width:0.215858"
         x="-171.82074"
         y="-1.5974014"
         id="text51334-4-5"
         transform="scale(0.81584409,1.2257244)"><tspan
           sodipodi:role="line"
           id="tspan51332-4-2"
           style="font-size:14.3906px;stroke-width:0.215858"
           x="-171.82074"
           y="-1.5974014">cm</tspan></text>
      <path
         d="m 443.32218,78.89097 h 0.27094 9.48293 c 0.30966,0 0.47738,0.067 0.50318,0.201401 h 0.0194 c 0.0258,0.115399 0.0258,0.307009 0,0.576079 l -0.38707,4.983131 c -0.0903,0.441464 -0.18061,0.681735 -0.27093,0.720111 -0.15483,0 -0.23224,-0.115399 -0.23224,-0.345656 0,-0.0958 0.0129,-0.268903 0.0387,-0.518208 0.0387,-0.51875 0.0581,-1.036943 0.0581,-1.55543 0,-1.286591 -0.21932,-2.14107 -0.65799,-2.563589 l -0.0194,-0.02725 c -0.41287,-0.383737 -1.12893,-0.576047 -2.14819,-0.576047 h -2.55458 c -0.47738,0 -0.76121,0.1056 -0.85153,0.316799 h -0.0194 v 0.02725 c -0.0387,0.07672 -0.071,0.192151 -0.0967,0.345648 v 0.02725 l -0.0194,0.02725 c -0.0129,0.07672 -0.0322,0.201401 -0.058,0.374504 l -1.23859,7.316312 h 1.76112 c 0.94184,0 1.57404,-0.259097 1.89659,-0.777728 l 0.0194,-0.02725 c 0.21932,-0.364704 0.41286,-1.017735 0.58058,-1.958662 0.0645,-0.364712 0.16128,-0.566487 0.2903,-0.604927 0.14192,0 0.21933,0.1056 0.23223,0.3168 0,0.09581 -0.0194,0.249855 -0.058,0.461054 l -1.06442,6.250514 c -0.12901,0.384302 -0.22578,0.585703 -0.29028,0.604855 -0.15483,0 -0.23225,-0.115383 -0.23225,-0.34564 0,-0.07672 0.0194,-0.18236 0.058,-0.316807 0.0903,-0.57612 0.13548,-1.046583 0.13548,-1.411455 0,-0.556847 -0.14193,-0.921711 -0.42578,-1.094543 -0.24513,-0.134455 -0.63864,-0.2014 -1.18052,-0.2014 h -1.87727 l -1.19989,7.172243 c -0.0516,0.287952 -0.0774,0.508951 -0.0774,0.662503 0,0.268904 0.0839,0.432199 0.25159,0.489903 0.0903,0.03808 0.21288,0.067 0.3677,0.08655 0.32255,0.03808 0.65801,0.05768 1.00636,0.05768 0.32255,0 0.50317,0.01091 0.54188,0.02725 l 0.0968,0.201401 c 0.0129,0.03808 0.0194,0.07672 0.0194,0.115399 0,0.364696 -0.13547,0.547264 -0.40641,0.547264 l -2.86423,-0.08654 h -0.0194 l -2.53524,0.08654 h -0.0194 c -0.19353,0 -0.29029,-0.1154 -0.29029,-0.345656 0,-0.326599 0.10321,-0.508943 0.30965,-0.547271 h 0.23223 c 0.83863,0 1.3418,-0.134448 1.50953,-0.403344 0.0774,-0.134455 0.15482,-0.403359 0.23224,-0.806535 0,-0.02167 0.006,-0.06692 0.0194,-0.144255 l 2.55459,-15.23745 c 0.0645,-0.345648 0.0968,-0.576071 0.0968,-0.691303 0,-0.326607 -0.29674,-0.499144 -0.89024,-0.518201 h -0.0194 -0.34835 c -0.33545,0 -0.51608,-0.1056 -0.54188,-0.3168 0,-0.345663 0.10322,-0.537814 0.30964,-0.576071 z"
         fill="#000000"
         id="path4-5-7-8"
         style="stroke-width:1.18051" />
      <path
         d="m 135.13992,-139.68415 c 1.6209,0 2.75713,0.62205 3.40867,1.86612 l 1.14416,-1.47737 c 0.20659,-0.25911 0.34961,-0.3889 0.42908,-0.3889 0.17476,0 0.2622,0.0862 0.2622,0.2591 l -1.28718,5.67619 c -0.14302,0.32817 -0.26221,0.50106 -0.35753,0.51835 -0.19069,0 -0.28604,-0.0862 -0.28604,-0.25911 l 0.0953,-1.39959 v -0.0519 c 0,-2.38449 -0.92169,-3.70636 -2.76507,-3.96551 -0.20658,-0.0343 -0.42906,-0.0519 -0.66742,-0.0519 -1.23953,0 -2.29629,0.54432 -3.17031,1.63289 -0.66743,0.82937 -1.00114,1.71924 -1.00114,2.6696 0,1.03676 0.38934,1.77973 1.168,2.22898 0.0954,0.0519 0.19068,0.095 0.28604,0.12981 0.0795,0.0196 0.61183,0.17289 1.59707,0.46627 1.46199,0.41486 2.336,0.72574 2.62205,0.93307 0.12712,0.0862 0.26222,0.20719 0.40523,0.36295 0.77869,0.79484 1.16801,1.80569 1.16801,3.03249 0,1.58964 -0.57209,3.06703 -1.71624,4.43205 -1.3031,1.43418 -2.74919,2.17716 -4.33831,2.22903 -1.84339,0 -3.18618,-0.62205 -4.02842,-1.86614 l -1.168,1.47733 c -0.20658,0.25911 -0.34961,0.3889 -0.42907,0.3889 -0.17482,0 -0.26221,-0.0862 -0.26221,-0.2591 l 1.35869,-5.83165 v -0.0519 c 0.0319,-0.12097 0.0557,-0.19005 0.0715,-0.20719 0.0635,-0.069 0.14302,-0.10383 0.23839,-0.10383 0.19067,0 0.28603,0.095 0.28603,0.28506 l -0.0476,0.18122 c -0.0954,0.62206 -0.14301,1.08859 -0.14301,1.39961 0,1.95254 0.91373,3.15343 2.74122,3.60266 0.44496,0.12099 0.9217,0.18124 1.43021,0.18124 1.25541,0 2.32806,-0.58752 3.21797,-1.76249 0.71511,-0.91578 1.07266,-1.91797 1.07266,-3.00655 0,-1.34777 -0.57208,-2.22035 -1.71625,-2.61778 l -0.47674,-0.12979 -2.55054,-0.72569 c -1.04882,-0.32816 -1.77982,-1.01947 -2.19299,-2.07352 -0.19068,-0.50106 -0.28604,-1.03671 -0.28604,-1.60693 0,-1.57241 0.60387,-2.98929 1.8116,-4.25063 1.20773,-1.24409 2.56643,-1.86613 4.0761,-1.86613 z"
         fill="#000000"
         id="path4"
         style="stroke-width:1.2428" />
      <text
         xml:space="preserve"
         style="font-style:normal;font-weight:normal;font-size:11.7176px;line-height:1.25;font-family:sans-serif;letter-spacing:0px;word-spacing:0px;fill:#000000;fill-opacity:1;stroke:none;stroke-width:0.175764"
         x="164.72572"
         y="-96.766258"
         id="text51334-4-9-3"
         transform="scale(0.85584601,1.1684345)"><tspan
           sodipodi:role="line"
           id="tspan51332-4-1-1"
           style="font-size:11.7176px;stroke-width:0.175764"
           x="164.72572"
           y="-96.766258">kw</tspan></text>
      <path
         d="m 140.24549,-149.04754 c 0.30237,0 0.50395,0.24354 0.60474,0.73075 0.26205,0.84141 0.67528,1.47248 1.23971,1.89322 0.28221,0.22158 0.42331,0.44314 0.42331,0.66428 0,0.24354 -0.17134,0.47641 -0.51402,0.69754 -0.90711,0.48708 -1.70334,1.2068 -2.38871,2.15899 -0.22173,0.2881 -0.41324,0.43185 -0.5745,0.43185 -0.28221,0 -0.47371,-0.15505 -0.5745,-0.46512 -0.0202,-0.0665 -0.0302,-0.13307 -0.0302,-0.19898 0,-0.35401 0.47371,-1.00756 1.42113,-1.95969 h -9.67583 c -0.62489,0 -0.96758,-0.15504 -1.02805,-0.46512 -0.0202,-0.0665 -0.0302,-0.13306 -0.0302,-0.19897 0.12095,-0.44252 0.47371,-0.66428 1.05829,-0.66428 h 10.1898 c -0.40315,-0.57558 -0.64505,-1.21789 -0.72568,-1.92649 0,-0.35401 0.1411,-0.57558 0.42331,-0.66427 0.0605,-0.0251 0.12096,-0.0314 0.18142,-0.0314 z"
         fill="#000000"
         id="path2-5-9-6"
         style="stroke-width:1.58454" />
      <path
         d="m 82.260005,-11.082081 c 0.30237,0 0.50395,0.24354 0.60474,0.73075 0.26205,0.84141 0.67528,1.47248 1.23971,1.89322 0.28221,0.22158 0.42331,0.44314 0.42331,0.66428 0,0.24354 -0.17134,0.47641 -0.51402,0.69754 -0.90711,0.48708 -1.70334,1.2068 -2.38871,2.15899 -0.22173,0.2881 -0.41324,0.43185 -0.5745,0.43185 -0.28221,0 -0.47371,-0.15505 -0.5745,-0.46512 -0.0202,-0.0665 -0.0302,-0.13307 -0.0302,-0.19898 0,-0.35401 0.47371,-1.00756 1.42113,-1.95969 h -9.67583 c -0.62489,0 -0.96758,-0.15504 -1.02805,-0.46512 -0.0202,-0.0665 -0.0302,-0.13306 -0.0302,-0.19897 0.12095,-0.44252 0.47371,-0.66428 1.05829,-0.66428 h 10.1898 c -0.40315,-0.57558 -0.64505,-1.21789 -0.72568,-1.92649 0,-0.35401 0.1411,-0.57558 0.42331,-0.66427 0.0605,-0.0251 0.12096,-0.0314 0.18142,-0.0314 z"
         fill="#000000"
         id="path2-5-9"
         style="stroke-width:1.58454" />
      <path
         d="m 424.33396,-31.818743 h 0.34968 12.23891 c 0.39965,0 0.61612,0.07384 0.64942,0.22196 h 0.025 c 0.0333,0.127179 0.0333,0.338349 0,0.634888 l -0.49955,5.491826 c -0.11654,0.48653 -0.23311,0.751329 -0.34967,0.793622 -0.19983,0 -0.29974,-0.127179 -0.29974,-0.380941 0,-0.10558 0.0167,-0.296354 0.0499,-0.571109 0.0499,-0.571706 0.075,-1.142798 0.075,-1.714214 0,-1.41793 -0.28307,-2.359638 -0.84923,-2.82529 l -0.025,-0.03003 c -0.53286,-0.422911 -1.45702,-0.634853 -2.7725,-0.634853 h -3.29701 c -0.61611,0 -0.98244,0.11638 -1.09901,0.34914 h -0.025 v 0.03003 c -0.05,0.08455 -0.0916,0.211767 -0.12488,0.380932 v 0.03003 l -0.025,0.03003 c -0.0167,0.08455 -0.0416,0.221961 -0.0749,0.412734 l -1.59856,8.063187 h 2.27295 c 1.21556,0 2.03149,-0.285546 2.44779,-0.85712 l 0.025,-0.03003 c 0.28306,-0.401935 0.53284,-1.121629 0.74931,-2.158609 0.0833,-0.401943 0.20815,-0.624317 0.37466,-0.66668 0.18317,0 0.28308,0.11638 0.29973,0.349139 0,0.10559 -0.025,0.275361 -0.0749,0.508121 l -1.37376,6.888588 c -0.16651,0.423534 -0.2914,0.645494 -0.37465,0.666601 -0.19983,0 -0.29974,-0.127162 -0.29974,-0.380924 0,-0.08455 0.025,-0.200976 0.0749,-0.349148 0.11657,-0.634932 0.17485,-1.153422 0.17485,-1.555541 0,-0.613692 -0.18317,-1.015802 -0.54951,-1.206277 -0.31638,-0.148182 -0.82425,-0.221961 -1.52362,-0.221961 h -2.42285 l -1.5486,7.904408 c -0.0666,0.317347 -0.0999,0.560906 -0.0999,0.730134 0,0.296354 0.10823,0.476319 0.32471,0.539913 0.11656,0.04197 0.27475,0.07384 0.47456,0.09539 0.41629,0.04197 0.84924,0.06357 1.29883,0.06357 0.41629,0 0.64941,0.01203 0.69937,0.03003 l 0.12488,0.22196 c 0.0166,0.04197 0.025,0.08455 0.025,0.12718 0,0.401925 -0.17484,0.60313 -0.52452,0.60313 l -3.69665,-0.09538 h -0.025 l -3.27204,0.09538 h -0.025 c -0.24978,0 -0.37466,-0.12718 -0.37466,-0.380942 0,-0.359939 0.13321,-0.560898 0.39964,-0.603139 h 0.29973 c 1.08235,0 1.73176,-0.148172 1.94823,-0.444517 0.0999,-0.148182 0.19982,-0.444536 0.29973,-0.888869 0,-0.02388 0.008,-0.07375 0.025,-0.158981 l 3.29702,-16.79294 c 0.0833,-0.380933 0.12488,-0.634879 0.12488,-0.761874 0,-0.359948 -0.38298,-0.550098 -1.14896,-0.5711 h -0.025 -0.44959 c -0.43294,0 -0.66606,-0.11638 -0.69937,-0.34914 0,-0.38095 0.13322,-0.592717 0.39964,-0.634879 z"
         fill="#000000"
         id="path4-5"
         style="stroke-width:1.40792" />
      <path
         d="m 46.079237,166.604 c 0.05292,0 0.08819,0.0388 0.105833,0.11642 0.04586,0.13405 0.118181,0.23459 0.216959,0.30162 0.04939,0.0353 0.07408,0.0706 0.07408,0.10583 0,0.0388 -0.02999,0.0759 -0.08996,0.11113 -0.15875,0.0776 -0.298098,0.19226 -0.418042,0.34396 -0.03881,0.0459 -0.07232,0.0688 -0.100542,0.0688 -0.04939,0 -0.0829,-0.0247 -0.100541,-0.0741 -0.0035,-0.0106 -0.0053,-0.0212 -0.0053,-0.0318 0,-0.0564 0.0829,-0.16052 0.248708,-0.31221 h -1.693333 c -0.109361,0 -0.169333,-0.0247 -0.179917,-0.0741 -0.0035,-0.0106 -0.0053,-0.0212 -0.0053,-0.0317 0.02117,-0.0705 0.0829,-0.10583 0.185208,-0.10583 h 1.783292 c -0.07056,-0.0917 -0.11289,-0.19403 -0.127,-0.30692 -10e-7,-0.0564 0.02469,-0.0917 0.07408,-0.10583 0.01058,-0.004 0.02117,-0.005 0.03175,-0.005 z"
         fill="#000000"
         id="path2"
         style="stroke-width:0.264583" />
      <ellipse
         style="fill:#ff0000;stroke-width:0.70627;stroke-miterlimit:4;stroke-dasharray:2.82509, 2.82509;stroke-dashoffset:0"
         id="path1229-6-31"
         cx="416.74548"
         cy="8.2022314"
         rx="5.5046129"
         ry="7.1559963" />
      <ellipse
         style="fill:#ff0000;stroke-width:0.70627;stroke-miterlimit:4;stroke-dasharray:2.82509, 2.82509;stroke-dashoffset:0"
         id="path1229-6-3"
         cx="430.74194"
         cy="68.18721"
         rx="5.5046129"
         ry="7.1559963" />
      <ellipse
         style="fill:#ff0000;stroke-width:0.865;stroke-miterlimit:4;stroke-dasharray:3.46001, 3.46001;stroke-dashoffset:0"
         id="path1229-5"
         cx="-155.55602"
         cy="8.6561394"
         rx="7.1559968"
         ry="8.2569189" />
      <ellipse
         style="fill:#ff0000;stroke-width:0.865;stroke-miterlimit:4;stroke-dasharray:3.46001, 3.46001;stroke-dashoffset:0"
         id="path1229-9"
         cx="-155.55602"
         cy="49.390282"
         rx="7.1559968"
         ry="8.2569189"
         inkscape:transform-center-x="20.91753"
         inkscape:transform-center-y="1.1009226" />
      <ellipse
         style="fill:#ff0000;stroke-width:0.70627;stroke-miterlimit:4;stroke-dasharray:2.82509, 2.82509;stroke-dashoffset:0"
         id="path1229-6"
         cx="82.793724"
         cy="-22.169689"
         rx="5.5046129"
         ry="7.1559963" />
      <g
         id="g1296">
        <path
           style="opacity:0.9;fill:#00c2ff;fill-opacity:1;stroke:#c4cfff;stroke-width:0.264583px;stroke-linecap:butt;stroke-linejoin:miter;stroke-opacity:0.714859"
           d="M -175.30682,196.37588 C -268.98444,-6.7233924 -268.98444,-6.7233924 -268.98444,-6.7233924 l 59.44982,-178.3494476 131.208641,92.639705 19.61774,233.233365 z"
           id="path178" />
      </g>
      <path
         style="fill:none;stroke:#000000;stroke-width:0.264583;stroke-linecap:butt;stroke-linejoin:miter;stroke-miterlimit:4;stroke-dasharray:1.05833, 1.05833;stroke-dashoffset:0;stroke-opacity:1"
         d="m -158.69991,50.06857 c -68.95685,20.058169 -68.95685,20.058169 -68.95685,20.058169"
         id="path180" />
      <path
         style="fill:none;stroke:#000000;stroke-width:1.665;stroke-linecap:butt;stroke-linejoin:miter;stroke-miterlimit:4;stroke-dasharray:6.66, 6.66;stroke-dashoffset:0;stroke-opacity:1"
         d="m -164.21926,51.09481 c -63.4375,19.031929 -63.4375,19.031929 -63.4375,19.031929 -140.31588,42.187821 -140.31588,42.187821 -140.31588,42.187821"
         id="path997" />
      <ellipse
         style="fill:#ff0000;stroke-width:0.865;stroke-miterlimit:4;stroke-dasharray:3.46001, 3.46001;stroke-dashoffset:0"
         id="path1229"
         cx="-372.98822"
         cy="113.79424"
         rx="7.1559968"
         ry="8.2569189" />
      <path
         style="fill:none;stroke:#000000;stroke-width:0.565;stroke-linecap:butt;stroke-linejoin:miter;stroke-miterlimit:4;stroke-dasharray:none;stroke-opacity:1"
         d="M -146.74864,44.986586 C 74.5368,-18.866928 74.5368,-18.866928 74.5368,-18.866928"
         id="path1430" />
      <path
         style="fill:none;stroke:#000000;stroke-width:0.264583;stroke-linecap:butt;stroke-linejoin:miter;stroke-miterlimit:4;stroke-dasharray:none;stroke-opacity:1"
         d="m -156.65694,39.481967 c 1.10092,-23.119373 1.10092,-23.119373 1.10092,-23.119373"
         id="path1593" />
      <path
         style="fill:#ffff00;stroke:#ffff00;stroke-width:6.30343;stroke-linecap:butt;stroke-linejoin:miter;stroke-miterlimit:4;stroke-dasharray:none;stroke-opacity:1"
         d="m -155.55602,42.784735 c 0,-28.623986 0,-28.623986 0,-28.623986"
         id="path1595" />
      <path
         style="fill:none;stroke:#000000;stroke-width:1.165;stroke-linecap:butt;stroke-linejoin:miter;stroke-miterlimit:4;stroke-dasharray:none;stroke-opacity:1"
         d="M -140.27433,26.571444 C 136.54024,-101.91794 136.54024,-101.91794 136.54024,-101.91794"
         id="path2121" />
      <path
         style="fill:none;stroke:#000000;stroke-width:0.765;stroke-linecap:butt;stroke-linejoin:miter;stroke-miterlimit:4;stroke-dasharray:none;stroke-opacity:1"
         d="m -142.11461,23.198469 6.99825,-9.997495"
         id="path2236" />
      <path
         style="fill:none;stroke:#000000;stroke-width:0.765;stroke-linecap:butt;stroke-linejoin:miter;stroke-miterlimit:4;stroke-dasharray:none;stroke-opacity:1"
         d="m -142.11461,26.19772 11.997,4.998746"
         id="path2238" />
      <path
         style="fill:none;stroke:#000000;stroke-width:0.765;stroke-linecap:butt;stroke-linejoin:miter;stroke-miterlimit:4;stroke-dasharray:none;stroke-opacity:1"
         d="m 401.35248,40.81453 11.65993,-4.253275 -6.8992,-12.333411"
         id="path2421" />
      <path
         style="fill:none;stroke:#000000;stroke-width:0.765;stroke-linecap:butt;stroke-linejoin:miter;stroke-miterlimit:4;stroke-dasharray:none;stroke-opacity:1"
         d="m -135.11636,13.200966 -6.82467,14.197801 11.82342,3.797691"
         id="path2684" />
      <circle
         id="path2832"
         style="fill:#ffff00;stroke:#ffff00;stroke-width:0.264583"
         cx="398.74997"
         cy="185.15791"
         r="0.38202184" />
      <circle
         id="path2834"
         style="fill:#ffff00;stroke:#ffff00;stroke-width:0.264583"
         cx="398.74997"
         cy="185.15791"
         r="0.38202184" />
      <g
         id="g1437">
        <path
           style="fill:#00c2ff;fill-opacity:1;stroke:#000000;stroke-width:0.264583px;stroke-linecap:butt;stroke-linejoin:miter;stroke-opacity:0.104418"
           d="m 402.01589,188.27751 -95.42261,-204.364321 60.58651,-177.589909 131.21373,91.90648 22.99424,231.94192 z"
           id="path7756" />
      </g>
      <path
         style="fill:none;stroke:#000000;stroke-width:1.465;stroke-linecap:butt;stroke-linejoin:miter;stroke-miterlimit:4;stroke-dasharray:5.86, 5.86;stroke-dashoffset:0;stroke-opacity:1"
         d="M 426.11082,71.203222 360.3544,101.73786 v 0"
         id="path7758" />
      <path
         style="fill:none;stroke:#000000;stroke-width:0.765;stroke-linecap:butt;stroke-linejoin:miter;stroke-miterlimit:4;stroke-dasharray:none;stroke-opacity:1"
         d="m 360.1495,101.81549 -142.154,52.31849"
         id="path7873" />
      <ellipse
         style="fill:#ff0000;stroke-width:0.70627;stroke-miterlimit:4;stroke-dasharray:2.82509, 2.82509;stroke-dashoffset:0"
         id="path1229-6-4"
         cx="212.79654"
         cy="157.16493"
         rx="5.5046129"
         ry="7.1559963" />
      <path
         style="fill:none;stroke:#000000;stroke-width:0.765;stroke-linecap:butt;stroke-linejoin:miter;stroke-miterlimit:4;stroke-dasharray:none;stroke-opacity:1"
         d="m 424.74345,55.190454 -12.99673,6.998256 3.99899,13.996484"
         id="path8036" />
      <path
         style="fill:#ffff00;stroke:#ffff00;stroke-width:5.365;stroke-linecap:butt;stroke-linejoin:miter;stroke-miterlimit:4;stroke-dasharray:none;stroke-opacity:1"
         d="M 427.74271,60.1892 C 417.74519,12.201222 417.74519,12.201222 417.74519,12.201222"
         id="path8151" />
      <text
         xml:space="preserve"
         style="font-style:normal;font-weight:normal;font-size:25.4px;line-height:1.25;font-family:sans-serif;letter-spacing:0px;word-spacing:0px;white-space:pre;inline-size:141.204;fill:#000000;fill-opacity:1;stroke:none;stroke-width:0.264583"
         x="-349.06281"
         y="188.15718"
         id="text13056"
         transform="matrix(0.92998589,0,0,1.2141191,88.786167,47.58865)"><tspan
           x="-349.06281"
           y="188.15718"
           id="tspan1201"><tspan
   style="font-size:31.2496px"
   id="tspan1199">Interior</tspan> 
</tspan></text>
      <text
         xml:space="preserve"
         style="font-style:normal;font-weight:normal;font-size:25.4px;line-height:1.25;font-family:sans-serif;letter-spacing:0px;word-spacing:0px;white-space:pre;inline-size:141.204;fill:#000000;fill-opacity:1;stroke:none;stroke-width:0.264583"
         x="-349.06281"
         y="188.15718"
         id="text13056-0"
         transform="matrix(0.91655019,0,0,1.2141191,198.2408,48.291076)"><tspan
           x="-349.06281"
           y="188.15718"
           id="tspan1205"><tspan
   style="font-size:31.2496px"
   id="tspan1203">Face</tspan> 
</tspan></text>
      <text
         xml:space="preserve"
         style="font-style:normal;font-weight:normal;font-size:33.73px;line-height:1.25;font-family:sans-serif;letter-spacing:0px;word-spacing:0px;fill:#000000;fill-opacity:1;stroke:none;stroke-width:0.252974"
         x="378.60074"
         y="230.05235"
         id="text45076"
         transform="scale(0.83325618,1.2001111)"><tspan
           sodipodi:role="line"
           id="tspan45074"
           style="font-size:33.73px;stroke-width:0.252974"
           x="378.60074"
           y="230.05235">Boundary Face</tspan></text>
      <text
         xml:space="preserve"
         style="font-style:normal;font-weight:normal;font-size:15.6877px;line-height:1.25;font-family:sans-serif;letter-spacing:0px;word-spacing:0px;fill:#000000;fill-opacity:1;stroke:none;stroke-width:0.235315"
         x="486.77646"
         y="-1.5967045"
         id="text51334"
         transform="scale(0.88938244,1.1243757)"><tspan
           sodipodi:role="line"
           id="tspan51332"
           style="font-size:15.6877px;stroke-width:0.235315"
           x="486.77646"
           y="-1.5967045">cm</tspan></text>
      <text
         xml:space="preserve"
         style="font-style:normal;font-weight:normal;font-size:10.5833px;line-height:1.25;font-family:sans-serif;letter-spacing:0px;word-spacing:0px;fill:#000000;fill-opacity:1;stroke:none;stroke-width:0.264583"
         x="451.73669"
         y="104.17822"
         id="text74263"><tspan
           sodipodi:role="line"
           id="tspan74261"
           style="stroke-width:0.264583"
           x="451.73669"
           y="104.17822">I</tspan></text>
      <path
         d="m 168.81696,-196.16335 1.86551,0.0814 h 0.0333 l 1.86556,0.0407 h 0.0705 l 4.32947,-0.12305 h 0.0332 c 0.3286,0 0.49289,0.15051 0.49289,0.44951 -0.18757,0.51764 -0.48092,0.79019 -0.87996,0.81765 -1.50185,0 -2.31145,0.40883 -2.42878,1.22668 l 2.39352,21.6312 10.80617,-19.9547 0.45764,-1.14492 c 0.0465,-0.16374 0.0705,-0.30001 0.0705,-0.40883 0,-0.81765 -0.53946,-1.26756 -1.61919,-1.34933 -0.37516,0 -0.56341,-0.16373 -0.56341,-0.49018 0,-0.51765 0.22284,-0.77698 0.66878,-0.77698 l 3.44951,0.12306 h 0.0332 l 2.81599,-0.12306 h 0.0705 c 0.30532,0 0.45765,0.16374 0.45765,0.49019 0,0.4912 -0.15233,0.74951 -0.45765,0.77697 -1.22021,0.0814 -2.18233,0.46374 -2.88636,1.14492 -0.25809,0.24509 -0.51618,0.5451 -0.77434,0.90003 -0.28137,0.38137 -0.56341,0.83087 -0.84478,1.34933 l -12.67174,23.43034 c -0.37517,0.46374 -0.70403,0.70883 -0.98561,0.73629 -0.32859,0 -0.53945,-0.16373 -0.63391,-0.49018 -0.0267,-0.10882 -0.0465,-0.25933 -0.0705,-0.44951 l -2.78079,-25.22948 c -0.0705,-0.62748 -0.23481,-1.00885 -0.4929,-1.14502 -0.25809,-0.16373 -0.79782,-0.24509 -1.61913,-0.24509 -0.53946,0 -0.83307,-0.16374 -0.88003,-0.49019 0,-0.51764 0.22284,-0.77697 0.66884,-0.77697 z"
         fill="#000000"
         id="path4-52-7"
         style="stroke-width:1.89692" />
      <path
         d="m 197.55128,-185.40908 c -1.31407,0 -2.52258,0.62748 -3.62551,1.88101 -1.05598,1.19943 -1.81861,2.84867 -2.28797,4.94772 h 1.44319 c 4.71668,0 7.07508,-1.41757 7.07508,-4.25261 0,-1.09041 -0.45764,-1.86738 -1.37281,-2.33072 -0.32859,-0.13628 -0.73914,-0.21763 -1.23198,-0.24509 z m 0,-0.90003 c 1.68957,0 2.8394,0.68138 3.44957,2.04454 0.21087,0.43629 0.31664,0.91325 0.31664,1.4312 0,1.41757 -0.52816,2.58974 -1.58394,3.51662 l -0.0332,0.0407 c -0.30533,0.24509 -0.64523,0.46374 -1.02073,0.65392 -1.29065,0.62748 -3.08585,0.94071 -5.38552,0.94071 h -1.86558 c -0.37516,1.77188 -0.56341,3.18945 -0.56341,4.25261 0,2.15356 0.53947,3.59838 1.61912,4.33437 0.39912,0.27255 0.87998,0.40883 1.44319,0.40883 2.11196,0 4.01272,-0.81765 5.70228,-2.45337 0.49291,-0.46374 0.93864,-0.99461 1.33755,-1.59483 0.1643,-0.27255 0.31663,-0.40882 0.45765,-0.40882 0.21086,0 0.35188,0.17695 0.42239,0.53188 0,0.30001 -0.39911,0.88579 -1.1968,1.75826 -1.94772,2.04454 -4.21221,3.06681 -6.79345,3.06681 -2.11195,0 -3.66077,-1.04953 -4.6463,-3.14858 -0.5867,-1.22668 -0.87997,-2.64425 -0.87997,-4.25261 0,-3.57113 1.19673,-6.46078 3.59032,-8.66885 1.75995,-1.63561 3.63722,-2.45347 5.63185,-2.45347 z"
         fill="#000000"
         id="path6-6-3"
         style="stroke-width:1.89692" />
      <path
         d="m 213.97625,-186.3087 c 1.8069,0 3.06231,0.6407 3.76626,1.92189 0.2581,0.49019 0.38714,1.02227 0.38714,1.59473 0,1.19943 -0.41042,2.01728 -1.23192,2.45347 -0.2348,0.10882 -0.48092,0.16373 -0.73921,0.16373 -0.70397,0 -1.12636,-0.35391 -1.26718,-1.06315 -0.0266,-0.10882 -0.0332,-0.23187 -0.0332,-0.36815 0,-0.60002 0.21086,-1.13129 0.63325,-1.59473 0.32861,-0.38136 0.84479,-0.57256 1.54875,-0.57256 -0.6572,-0.98138 -1.66608,-1.52659 -3.02712,-1.63561 -1.52533,0 -2.90984,0.90003 -4.15354,2.69877 -0.30531,0.43628 -0.57471,0.90002 -0.80959,1.39031 -0.93864,1.99003 -1.54874,4.33438 -1.83032,7.03314 -0.0465,0.43629 -0.0705,0.81765 -0.0705,1.14502 0,2.23532 0.6572,3.63927 1.9712,4.21173 0.3286,0.16373 0.72745,0.24509 1.19673,0.24509 2.11196,0 4.01272,-0.81765 5.70228,-2.45337 0.49291,-0.46374 0.93865,-0.9946 1.33762,-1.59483 0.16431,-0.27255 0.31663,-0.40882 0.45765,-0.40882 0.21153,0 0.35188,0.17695 0.42239,0.53188 0,0.30001 -0.39911,0.88579 -1.1968,1.75826 -1.94766,2.04454 -4.21214,3.06681 -6.79345,3.06681 -2.22929,0 -3.84848,-1.0359 -4.8575,-3.1077 -0.56341,-1.11766 -0.84478,-2.38533 -0.84478,-3.80279 0,-2.78064 0.91516,-5.35675 2.74555,-7.72835 1.8069,-2.34445 3.825,-3.62564 6.0543,-3.84379 0.21085,-0.0305 0.42239,-0.0407 0.63391,-0.0407 z"
         fill="#000000"
         id="path8-8-1"
         style="stroke-width:1.89692" />
      <path
         d="m 226.2874,-193.83253 c 0.60997,0 0.95034,0.36814 1.02078,1.10403 0,0.16374 -0.48092,2.45347 -1.44318,6.86961 h 3.09757 c 0.60996,0 0.93863,0.1495 0.98553,0.44951 0,0.4912 -0.18759,0.76375 -0.56341,0.81765 h -0.0333 -0.45764 -3.30869 l -2.60479,12.06272 c -0.14102,0.68138 -0.21086,1.33571 -0.21086,1.96278 0,1.25394 0.36385,1.8809 1.09117,1.8809 1.54881,0 2.90984,-1.32207 4.08315,-3.96633 l 0.4929,-1.26766 c 0.14102,-0.35391 0.31663,-0.54511 0.52816,-0.57256 0.28137,0 0.42239,0.13627 0.42239,0.40882 0,0.35391 -0.30532,1.13129 -0.91523,2.33072 -1.36103,2.64425 -2.92154,3.96643 -4.68149,3.96643 -1.36103,0 -2.32315,-0.65392 -2.88636,-1.96277 -0.23481,-0.5451 -0.35188,-1.14492 -0.35188,-1.79914 0,-0.51765 0.71566,-4.0482 2.14715,-10.59075 l 0.52814,-2.45336 h -3.09749 c -0.58669,0 -0.90344,-0.10882 -0.95041,-0.32747 h -0.0332 v -0.16374 c 0,-0.46374 0.18758,-0.72205 0.56341,-0.77697 h 0.4929 3.30875 l 1.37274,-6.50156 c 0.21086,-0.95393 0.68055,-1.44483 1.40799,-1.47208 z"
         fill="#000000"
         id="path10-4-2"
         style="stroke-width:1.89692" />
      <path
         d="m 241.88468,-185.40908 c -1.43147,0 -2.7808,0.87257 -4.04798,2.617 -0.1643,0.24509 -0.31662,0.49019 -0.45764,0.73629 -0.0938,0.13628 -0.17627,0.27256 -0.24612,0.40883 -0.84478,1.5811 -1.46666,3.78927 -1.86557,6.62431 -0.11707,0.76376 -0.17627,1.39032 -0.17627,1.88101 0,2.26258 0.68054,3.68015 2.04157,4.25261 0.32861,0.13628 0.66878,0.20442 1.0208,0.20442 1.38451,0 2.68687,-0.7902 3.90708,-2.3716 0.32861,-0.43629 0.62195,-0.90003 0.88004,-1.39032 0.98554,-1.96277 1.6426,-4.40261 1.97113,-7.31942 0.0266,-0.21865 0.0332,-0.43628 0.0332,-0.65392 v -0.0407 l 0.0332,-0.0407 v -0.49018 c 0,-2.01729 -0.57472,-3.36662 -1.72475,-4.0482 -0.39911,-0.24509 -0.85649,-0.36815 -1.37274,-0.36815 z m 0.0332,-0.90003 c 2.0181,0 3.55514,0.91325 4.61112,2.73975 0.68048,1.17217 1.02072,2.56249 1.02072,4.17085 0,2.88955 -0.95034,5.52017 -2.85111,7.89187 -1.80691,2.28984 -3.83671,3.51662 -6.08948,3.68016 -0.16431,0.0305 -0.32861,0.0407 -0.49291,0.0407 -2.04158,0 -3.59032,-0.9407 -4.6463,-2.82141 -0.6572,-1.17227 -0.9856,-2.53523 -0.9856,-4.08908 0,-2.80788 0.93864,-5.41125 2.81592,-7.81011 1.78349,-2.28994 3.80152,-3.54388 6.0543,-3.76192 0.18758,-0.0305 0.37516,-0.0407 0.56341,-0.0407 z"
         fill="#000000"
         id="path12-37-6"
         style="stroke-width:1.89692" />
      <path
         d="m 252.82188,-186.3087 c 1.31407,0 2.26449,0.65392 2.85112,1.96277 0.14101,0.30001 0.24612,0.62646 0.31662,0.98139 0.0267,0.0508 0.0333,0.12306 0.0333,0.20441 1.36103,-1.96267 2.86288,-3.01219 4.50548,-3.14857 1.31414,0 2.20581,0.53188 2.67516,1.59473 0.1643,0.32747 0.24612,0.68138 0.24612,1.06315 0,1.06315 -0.38713,1.79924 -1.16154,2.20817 -0.25809,0.13628 -0.51618,0.20442 -0.77441,0.20442 -0.72744,0 -1.16161,-0.36815 -1.30236,-1.10404 -0.0266,-0.10882 -0.0332,-0.21865 -0.0332,-0.32747 0,-0.90003 0.39911,-1.56747 1.19673,-2.00365 l 0.0332,-0.0407 c 0.18759,-0.0814 0.38714,-0.1495 0.59867,-0.20442 l -0.70397,-0.36814 c -0.30531,-0.0508 -0.56341,-0.0915 -0.7744,-0.12306 -0.98554,0 -1.92418,0.44951 -2.81592,1.34933 -0.72744,0.76376 -1.34932,1.77199 -1.86558,3.02593 -0.0465,0.13627 -0.0825,0.24509 -0.10575,0.32747 l -1.12642,5.31576 -1.40794,6.46068 c -0.21152,0.70884 -0.64522,1.09051 -1.30242,1.14502 -0.58669,-0.13628 -0.92687,-0.50442 -1.02073,-1.10404 0,0.0508 0.10577,-0.53188 0.31663,-1.75836 l 2.04158,-9.44572 c 0.37516,-1.74463 0.56341,-2.88955 0.56341,-3.43486 0,-1.25393 -0.36385,-1.8809 -1.09117,-1.8809 -0.96212,0 -1.74823,1.29482 -2.35834,3.88456 -0.0705,0.30001 -0.14102,0.62748 -0.21152,0.98139 -0.2581,0.60002 -0.45765,0.91325 -0.59867,0.94071 -0.28137,0 -0.42239,-0.13628 -0.42239,-0.40883 0,-0.43629 0.21086,-1.34933 0.63392,-2.73965 0.1643,-0.49018 0.31662,-0.90003 0.45764,-1.22668 0.56341,-1.33581 1.26718,-2.09905 2.11196,-2.28994 0.1643,-0.0305 0.3286,-0.0407 0.4929,-0.0407 z"
         fill="#000000"
         id="path14-6-8"
         style="stroke-width:1.89692" />
      <path
         style="fill:none;stroke:#000000;stroke-width:1.50529;stroke-linecap:butt;stroke-linejoin:miter;stroke-miterlimit:4;stroke-dasharray:none;stroke-opacity:1"
         d="M -368.80651,112.21738 -232.64637,71.996276"
         id="path79650" />
      <path
         style="fill:none;stroke:#000000;stroke-width:2.065;stroke-linecap:butt;stroke-linejoin:miter;stroke-miterlimit:4;stroke-dasharray:none;stroke-opacity:1"
         d="m 424.74345,55.190454 -12.99673,6.998256 3.99899,13.996484"
         id="path88545" />
      <path
         style="fill:none;stroke:#000000;stroke-width:1.765;stroke-linecap:butt;stroke-linejoin:miter;stroke-miterlimit:4;stroke-dasharray:none;stroke-opacity:1"
         d="M 360.14948,101.81549 C 217.9955,154.13398 217.9955,154.13398 217.9955,154.13398"
         id="path88547" />
      <ellipse
         style="fill:#ff0000;stroke-width:0.865;stroke-miterlimit:4;stroke-dasharray:3.46001, 3.46001;stroke-dashoffset:0"
         id="path1229-4"
         cx="430.64224"
         cy="67.174347"
         rx="7.1559968"
         ry="8.2569189" />
      <ellipse
         style="fill:#ff0000;stroke-width:0.865;stroke-miterlimit:4;stroke-dasharray:3.46001, 3.46001;stroke-dashoffset:0"
         id="path1229-53"
         cx="417.29758"
         cy="8.7915812"
         rx="7.1559968"
         ry="8.2569189" />
      <ellipse
         style="fill:#ff0000;stroke-width:0.865;stroke-miterlimit:4;stroke-dasharray:3.46001, 3.46001;stroke-dashoffset:0"
         id="path1229-0"
         cx="-156.5215"
         cy="52.161633"
         rx="7.1559968"
         ry="8.2569189" />
      <ellipse
         style="fill:#ff0000;stroke-width:0.865;stroke-miterlimit:4;stroke-dasharray:3.46001, 3.46001;stroke-dashoffset:0"
         id="path1229-2"
         cx="-154.85344"
         cy="7.1235108"
         rx="7.1559968"
         ry="8.2569189" />
      <path
         d="m -147.58536,-31.613378 h 0.34968 12.23891 c 0.39965,0 0.61612,0.0482 0.64942,0.144882 h 0.025 c 0.0333,0.08302 0.0333,0.220852 0,0.414413 l -0.49955,3.584707 c -0.11654,0.317575 -0.23311,0.490419 -0.34967,0.518025 -0.19983,0 -0.29974,-0.08302 -0.29974,-0.248654 0,-0.06892 0.0167,-0.19344 0.0499,-0.372782 0.0499,-0.373173 0.075,-0.745944 0.075,-1.118927 0,-0.925533 -0.28307,-1.540219 -0.84923,-1.844167 l -0.025,-0.0196 c -0.53286,-0.276048 -1.45702,-0.41439 -2.7725,-0.41439 h -3.29701 c -0.61611,0 -0.98244,0.07596 -1.09901,0.227895 h -0.025 v 0.0196 c -0.05,0.05519 -0.0916,0.138227 -0.12488,0.248647 v 0.0196 l -0.025,0.0196 c -0.0167,0.05519 -0.0416,0.144881 -0.0749,0.269406 l -1.59856,5.263124 h 2.27295 c 1.21556,0 2.03149,-0.186386 2.44779,-0.559473 l 0.025,-0.0196 c 0.28306,-0.262358 0.53284,-0.732127 0.74931,-1.409001 0.0833,-0.262362 0.20815,-0.407512 0.37466,-0.435165 0.18317,0 0.28308,0.07597 0.29973,0.227896 0,0.06892 -0.025,0.179738 -0.0749,0.331668 l -1.37376,4.496422 c -0.16651,0.276455 -0.2914,0.421336 -0.37465,0.435113 -0.19983,0 -0.29974,-0.083 -0.29974,-0.248642 0,-0.05519 0.025,-0.131184 0.0749,-0.227902 0.11657,-0.41444 0.17485,-0.752878 0.17485,-1.015354 0,-0.400579 -0.18317,-0.663051 -0.54951,-0.787381 -0.31638,-0.09672 -0.82425,-0.144881 -1.52362,-0.144881 h -2.42285 l -1.5486,5.159484 c -0.0666,0.207143 -0.0999,0.366123 -0.0999,0.476583 0,0.19344 0.10823,0.31091 0.32471,0.35242 0.11656,0.02738 0.27475,0.04818 0.47456,0.06228 0.41629,0.02738 0.84924,0.04148 1.29883,0.04148 0.41629,0 0.64941,0.0079 0.69937,0.01957 l 0.12488,0.144881 c 0.0166,0.02738 0.025,0.05517 0.025,0.08302 0,0.26235 -0.17484,0.393685 -0.52452,0.393685 l -3.69665,-0.06228 h -0.025 l -3.27204,0.06228 h -0.025 c -0.24978,0 -0.37466,-0.08302 -0.37466,-0.248654 0,-0.234945 0.13321,-0.366118 0.39964,-0.393693 h 0.29973 c 1.08235,0 1.73176,-0.09672 1.94823,-0.290152 0.0999,-0.09672 0.19982,-0.290162 0.29973,-0.580194 0,-0.01559 0.008,-0.04814 0.025,-0.103772 l 3.29702,-10.961339 c 0.0833,-0.248648 0.12488,-0.414408 0.12488,-0.497301 0,-0.234951 -0.38298,-0.359069 -1.14896,-0.372778 h -0.025 -0.44959 c -0.43294,0 -0.66606,-0.07596 -0.69937,-0.227895 0,-0.24866 0.13322,-0.386887 0.39964,-0.414408 z"
         fill="#000000"
         id="path4-5-7-5-3"
         style="stroke-width:1.13749" />
      <path
         d="m -132.57264,61.799034 h 0.34968 12.23891 c 0.39965,0 0.61612,0.0482 0.64942,0.144882 h 0.025 c 0.0333,0.08302 0.0333,0.220852 0,0.414413 l -0.49955,3.584707 c -0.11654,0.317575 -0.23311,0.490419 -0.34967,0.518025 -0.19983,0 -0.29974,-0.08302 -0.29974,-0.248654 0,-0.06892 0.0167,-0.19344 0.0499,-0.372782 0.0499,-0.373173 0.075,-0.745944 0.075,-1.118927 0,-0.925533 -0.28307,-1.540219 -0.84923,-1.844167 l -0.025,-0.0196 c -0.53286,-0.276048 -1.45702,-0.41439 -2.7725,-0.41439 h -3.29701 c -0.61611,0 -0.98244,0.07596 -1.09901,0.227895 h -0.025 v 0.0196 c -0.05,0.05519 -0.0916,0.138227 -0.12488,0.248647 v 0.0196 l -0.025,0.0196 c -0.0167,0.05519 -0.0416,0.144881 -0.0749,0.269406 l -1.59856,5.263124 h 2.27295 c 1.21556,0 2.03149,-0.186386 2.44779,-0.559473 l 0.025,-0.0196 c 0.28306,-0.262358 0.53284,-0.732127 0.74931,-1.409001 0.0833,-0.262362 0.20815,-0.407512 0.37466,-0.435165 0.18317,0 0.28308,0.07597 0.29973,0.227896 0,0.06892 -0.025,0.179738 -0.0749,0.331668 l -1.37376,4.496422 c -0.16651,0.276455 -0.2914,0.421336 -0.37465,0.435113 -0.19983,0 -0.29974,-0.083 -0.29974,-0.248642 0,-0.05519 0.025,-0.131184 0.0749,-0.227902 0.11657,-0.41444 0.17485,-0.752878 0.17485,-1.015354 0,-0.400579 -0.18317,-0.663051 -0.54951,-0.787381 -0.31638,-0.09672 -0.82425,-0.144881 -1.52362,-0.144881 h -2.42285 l -1.5486,5.159484 c -0.0666,0.207143 -0.0999,0.366123 -0.0999,0.476583 0,0.19344 0.10823,0.31091 0.32471,0.35242 0.11656,0.02738 0.27475,0.04818 0.47456,0.06228 0.41629,0.02738 0.84924,0.04148 1.29883,0.04148 0.41629,0 0.64941,0.0079 0.69937,0.01957 l 0.12488,0.144881 c 0.0166,0.02738 0.025,0.05517 0.025,0.08302 0,0.26235 -0.17484,0.393685 -0.52452,0.393685 l -3.69665,-0.06228 h -0.025 l -3.27204,0.06228 h -0.025 c -0.24978,0 -0.37466,-0.08302 -0.37466,-0.248654 0,-0.234945 0.13321,-0.366118 0.39964,-0.393693 h 0.29973 c 1.08235,0 1.73176,-0.09672 1.94823,-0.290152 0.0999,-0.09672 0.19982,-0.290162 0.29973,-0.580194 0,-0.01559 0.008,-0.04814 0.025,-0.103772 l 3.29702,-10.961339 c 0.0833,-0.248648 0.12488,-0.414408 0.12488,-0.497301 0,-0.234951 -0.38298,-0.359069 -1.14896,-0.372778 h -0.025 -0.44959 c -0.43294,0 -0.66606,-0.07596 -0.69937,-0.227895 0,-0.24866 0.13322,-0.386887 0.39964,-0.414408 z"
         fill="#000000"
         id="path4-5-7-5-3-8"
         style="stroke-width:1.13749" />
      <path
         d="m 429.5699,-29.945301 h 0.34968 12.23891 c 0.39965,0 0.61612,0.0482 0.64942,0.144882 h 0.025 c 0.0333,0.08302 0.0333,0.220852 0,0.414413 l -0.49955,3.584707 c -0.11654,0.317575 -0.23311,0.490419 -0.34967,0.518025 -0.19983,0 -0.29974,-0.08302 -0.29974,-0.248654 0,-0.06892 0.0167,-0.19344 0.0499,-0.372782 0.0499,-0.373173 0.075,-0.745944 0.075,-1.118927 0,-0.925533 -0.28307,-1.540219 -0.84923,-1.844167 l -0.025,-0.0196 c -0.53286,-0.276048 -1.45702,-0.41439 -2.7725,-0.41439 h -3.29701 c -0.61611,0 -0.98244,0.07596 -1.09901,0.227895 h -0.025 v 0.0196 c -0.05,0.05519 -0.0916,0.138227 -0.12488,0.248647 v 0.0196 l -0.025,0.0196 c -0.0167,0.05519 -0.0416,0.144881 -0.0749,0.269406 l -1.59856,5.263124 h 2.27295 c 1.21556,0 2.03149,-0.186386 2.44779,-0.559473 l 0.025,-0.0196 c 0.28306,-0.262358 0.53284,-0.732127 0.74931,-1.409001 0.0833,-0.262362 0.20815,-0.407512 0.37466,-0.435165 0.18317,0 0.28308,0.07597 0.29973,0.227896 0,0.06892 -0.025,0.179738 -0.0749,0.331668 l -1.37376,4.496422 c -0.16651,0.276455 -0.2914,0.421336 -0.37465,0.435113 -0.19983,0 -0.29974,-0.083 -0.29974,-0.248642 0,-0.05519 0.025,-0.131184 0.0749,-0.227902 0.11657,-0.41444 0.17485,-0.752878 0.17485,-1.015354 0,-0.400579 -0.18317,-0.663051 -0.54951,-0.787381 -0.31638,-0.09672 -0.82425,-0.144881 -1.52362,-0.144881 h -2.42285 l -1.5486,5.159484 c -0.0666,0.207143 -0.0999,0.366123 -0.0999,0.476583 0,0.19344 0.10823,0.31091 0.32471,0.35242 0.11656,0.02738 0.27475,0.04818 0.47456,0.06228 0.41629,0.02738 0.84924,0.04148 1.29883,0.04148 0.41629,0 0.64941,0.0079 0.69937,0.01957 l 0.12488,0.144881 c 0.0166,0.02738 0.025,0.05517 0.025,0.08302 0,0.26235 -0.17484,0.393685 -0.52452,0.393685 l -3.69665,-0.06228 h -0.025 l -3.27204,0.06228 h -0.025 c -0.24978,0 -0.37466,-0.08302 -0.37466,-0.248654 0,-0.234945 0.13321,-0.366118 0.39964,-0.393693 h 0.29973 c 1.08235,0 1.73176,-0.09672 1.94823,-0.290152 0.0999,-0.09672 0.19982,-0.290162 0.29973,-0.580194 0,-0.01559 0.008,-0.04814 0.025,-0.103772 l 3.29702,-10.961339 c 0.0833,-0.248648 0.12488,-0.414408 0.12488,-0.497301 0,-0.234951 -0.38298,-0.359069 -1.14896,-0.372778 h -0.025 -0.44959 c -0.43294,0 -0.66606,-0.07596 -0.69937,-0.227895 0,-0.24866 0.13322,-0.386887 0.39964,-0.414408 z"
         fill="#000000"
         id="path4-5-7-5-3-4"
         style="stroke-width:1.13749" />
      <path
         d="m 444.58261,80.147899 h 0.34968 12.23891 c 0.39965,0 0.61612,0.0482 0.64942,0.144882 h 0.025 c 0.0333,0.08302 0.0333,0.220852 0,0.414413 l -0.49955,3.584707 c -0.11654,0.317575 -0.23311,0.490419 -0.34967,0.518025 -0.19983,0 -0.29974,-0.08302 -0.29974,-0.248654 0,-0.06892 0.0167,-0.19344 0.0499,-0.372782 0.0499,-0.373173 0.075,-0.745944 0.075,-1.118927 0,-0.925533 -0.28307,-1.540219 -0.84923,-1.844167 l -0.025,-0.0196 c -0.53286,-0.276048 -1.45702,-0.41439 -2.7725,-0.41439 h -3.29701 c -0.61611,0 -0.98244,0.07596 -1.09901,0.227895 h -0.025 v 0.0196 c -0.05,0.05519 -0.0916,0.138227 -0.12488,0.248647 v 0.0196 l -0.025,0.0196 c -0.0167,0.05519 -0.0416,0.144881 -0.0749,0.269406 l -1.59856,5.263125 h 2.27295 c 1.21556,0 2.03149,-0.18639 2.44779,-0.559474 l 0.025,-0.0196 c 0.28306,-0.262358 0.53284,-0.732127 0.74931,-1.409001 0.0833,-0.262362 0.20815,-0.407512 0.37466,-0.435165 0.18317,0 0.28308,0.07597 0.29973,0.227896 0,0.06892 -0.025,0.179738 -0.0749,0.331668 l -1.37376,4.496426 c -0.16651,0.27645 -0.2914,0.42133 -0.37465,0.43511 -0.19983,0 -0.29974,-0.083 -0.29974,-0.24864 0,-0.0552 0.025,-0.13119 0.0749,-0.22791 0.11657,-0.41444 0.17485,-0.75287 0.17485,-1.01535 0,-0.40058 -0.18317,-0.66305 -0.54951,-0.78738 -0.31638,-0.0967 -0.82425,-0.14488 -1.52362,-0.14488 h -2.42285 l -1.5486,5.15948 c -0.0666,0.20715 -0.0999,0.36613 -0.0999,0.47659 0,0.19344 0.10823,0.31091 0.32471,0.35242 0.11656,0.0274 0.27475,0.0482 0.47456,0.0623 0.41629,0.0274 0.84924,0.0415 1.29883,0.0415 0.41629,0 0.64941,0.008 0.69937,0.0196 l 0.12488,0.14488 c 0.0166,0.0274 0.025,0.0552 0.025,0.083 0,0.26235 -0.17484,0.39368 -0.52452,0.39368 l -3.69665,-0.0623 h -0.025 l -3.27204,0.0623 h -0.025 c -0.24978,0 -0.37466,-0.083 -0.37466,-0.24865 0,-0.23495 0.13321,-0.36612 0.39964,-0.39369 h 0.29973 c 1.08235,0 1.73176,-0.0967 1.94823,-0.29016 0.0999,-0.0967 0.19982,-0.29016 0.29973,-0.58019 0,-0.0156 0.008,-0.0481 0.025,-0.10377 l 3.29702,-10.961342 c 0.0833,-0.248648 0.12488,-0.414408 0.12488,-0.497301 0,-0.234951 -0.38298,-0.359069 -1.14896,-0.372778 h -0.025 -0.44959 c -0.43294,0 -0.66606,-0.07596 -0.69937,-0.227895 0,-0.24866 0.13322,-0.386887 0.39964,-0.414408 z"
         fill="#000000"
         id="path4-5-7-5-3-9"
         style="stroke-width:1.13749" />
      <text
         xml:space="preserve"
         style="font-style:normal;font-weight:normal;font-size:10.5833px;line-height:1.25;font-family:sans-serif;letter-spacing:0px;word-spacing:0px;fill:#000000;fill-opacity:1;stroke:none;stroke-width:0.264583"
         x="-125.38717"
         y="87.702431"
         id="text74263-8"><tspan
           sodipodi:role="line"
           id="tspan74261-1"
           style="stroke-width:0.264583"
           x="-125.38717"
           y="87.702431">I</tspan></text>
      <text
         xml:space="preserve"
         style="font-style:normal;font-weight:normal;font-size:15.6877px;line-height:1.25;font-family:sans-serif;letter-spacing:0px;word-spacing:0px;fill:#000000;fill-opacity:1;stroke:none;stroke-width:0.235315"
         x="-159.29599"
         y="-5.6825404"
         id="text51334-2"
         transform="scale(0.88938244,1.1243757)"><tspan
           sodipodi:role="line"
           id="tspan51332-1"
           style="font-size:15.6877px;stroke-width:0.235315"
           x="-159.29599"
           y="-5.6825404">cm</tspan></text>
      <path
         style="fill:none;stroke:#000000;stroke-width:1.2;stroke-linecap:butt;stroke-linejoin:miter;stroke-miterlimit:4;stroke-dasharray:none;stroke-opacity:1"
         d="M 136.54024,-101.91794 403.95297,33.812761 398.94872,7.1234999"
         id="path90649" />
      <path
         style="fill:none;stroke:#000000;stroke-width:1.165;stroke-linecap:butt;stroke-linejoin:miter;stroke-miterlimit:4;stroke-dasharray:none;stroke-opacity:1"
         d="m 403.95297,33.812753 -21.68504,8.34041"
         id="path90865" />
      <path
         d="m -132.07488,-41.202936 c 0.30237,0 0.50395,0.24354 0.60474,0.73075 0.26205,0.84141 0.67528,1.47248 1.23971,1.89322 0.28221,0.22158 0.42331,0.44314 0.42331,0.66428 0,0.24354 -0.17134,0.47641 -0.51402,0.69754 -0.90711,0.48708 -1.70334,1.2068 -2.38871,2.15899 -0.22173,0.2881 -0.41324,0.43185 -0.5745,0.43185 -0.28221,0 -0.47371,-0.15505 -0.5745,-0.46512 -0.0202,-0.0665 -0.0302,-0.13307 -0.0302,-0.19898 0,-0.35401 0.47371,-1.00756 1.42113,-1.95969 h -9.67583 c -0.62489,0 -0.96758,-0.15504 -1.02805,-0.46512 -0.0202,-0.0665 -0.0302,-0.13306 -0.0302,-0.19897 0.12095,-0.44252 0.47371,-0.66428 1.05829,-0.66428 h 10.1898 c -0.40315,-0.57558 -0.64505,-1.21789 -0.72568,-1.92649 0,-0.35401 0.1411,-0.57558 0.42331,-0.66427 0.0605,-0.0251 0.12096,-0.0314 0.18142,-0.0314 z"
         fill="#000000"
         id="path2-5-9-97-9"
         style="stroke-width:1.58454" />
      <path
         d="m -117.06217,52.209478 c 0.30237,0 0.50395,0.24354 0.60474,0.73075 0.26205,0.84141 0.67528,1.47248 1.23971,1.89322 0.28221,0.22158 0.42331,0.44314 0.42331,0.66428 0,0.24354 -0.17134,0.47641 -0.51402,0.69754 -0.90711,0.48708 -1.70334,1.2068 -2.38871,2.15899 -0.22173,0.2881 -0.41324,0.43185 -0.5745,0.43185 -0.28221,0 -0.47371,-0.15505 -0.5745,-0.46512 -0.0202,-0.0665 -0.0302,-0.13307 -0.0302,-0.19898 0,-0.35401 0.47371,-1.00756 1.42113,-1.95969 h -9.67583 c -0.62489,0 -0.96758,-0.15504 -1.02805,-0.46512 -0.0202,-0.0665 -0.0302,-0.13306 -0.0302,-0.19897 0.12095,-0.44252 0.47371,-0.66428 1.05829,-0.66428 h 10.1898 c -0.40315,-0.57558 -0.64505,-1.21789 -0.72568,-1.92649 0,-0.35401 0.1411,-0.57558 0.42331,-0.66427 0.0605,-0.0251 0.12096,-0.0314 0.18142,-0.0314 z"
         fill="#000000"
         id="path2-5-9-97-6"
         style="stroke-width:1.58454" />
      <path
         d="m 458.42502,72.226423 c 0.30237,0 0.50395,0.24354 0.60474,0.73075 0.26205,0.84141 0.67528,1.47248 1.23971,1.89322 0.28221,0.22158 0.42331,0.44314 0.42331,0.66428 0,0.24354 -0.17134,0.47641 -0.51402,0.69754 -0.90711,0.48708 -1.70334,1.2068 -2.38871,2.15899 -0.22173,0.2881 -0.41324,0.43185 -0.5745,0.43185 -0.28221,0 -0.47371,-0.15505 -0.5745,-0.46512 -0.0202,-0.0665 -0.0302,-0.13307 -0.0302,-0.19898 0,-0.35401 0.47371,-1.00756 1.42113,-1.95969 h -9.67583 c -0.62489,0 -0.96758,-0.15504 -1.02805,-0.46512 -0.0202,-0.0665 -0.0302,-0.13306 -0.0302,-0.19897 0.12095,-0.44252 0.47371,-0.66428 1.05829,-0.66428 h 10.1898 c -0.40315,-0.57558 -0.64505,-1.21789 -0.72568,-1.92649 0,-0.35401 0.1411,-0.57558 0.42331,-0.66427 0.0605,-0.0251 0.12096,-0.0314 0.18142,-0.0314 z"
         fill="#000000"
         id="path2-5-9-97-4"
         style="stroke-width:1.58454" />
      <g
         id="g946">
        <path
           d="m 443.41231,-39.534857 c 0.30237,0 0.50395,0.24354 0.60474,0.73075 0.26205,0.84141 0.67528,1.47248 1.23971,1.89322 0.28221,0.22158 0.42331,0.44314 0.42331,0.66428 0,0.24354 -0.17134,0.47641 -0.51402,0.69754 -0.90711,0.48708 -1.70334,1.2068 -2.38871,2.15899 -0.22173,0.2881 -0.41324,0.43185 -0.5745,0.43185 -0.28221,0 -0.47371,-0.15505 -0.5745,-0.46512 -0.0202,-0.0665 -0.0302,-0.13307 -0.0302,-0.19898 0,-0.35401 0.47371,-1.00756 1.42113,-1.95969 h -9.67583 c -0.62489,0 -0.96758,-0.15504 -1.02805,-0.46512 -0.0202,-0.0665 -0.0302,-0.13306 -0.0302,-0.19897 0.12095,-0.44252 0.47371,-0.66428 1.05829,-0.66428 h 10.1898 c -0.40315,-0.57558 -0.64505,-1.21789 -0.72568,-1.92649 0,-0.35401 0.1411,-0.57558 0.42331,-0.66427 0.0605,-0.0251 0.12096,-0.0314 0.18142,-0.0314 z"
           fill="#000000"
           id="path2-5-9-97-95"
           style="stroke-width:1.58454" />
      </g>
    </g>
  </g>
</svg>
